<mxfile host="app.diagrams.net" agent="Mozilla/5.0 (Windows NT 10.0; Win64; x64; rv:134.0) Gecko/20100101 Firefox/134.0" version="26.0.11">
  <diagram name="Page-1" id="YOK3STyYylCAsEqBLg2X">
    <mxGraphModel dx="1714" dy="914" grid="1" gridSize="10" guides="1" tooltips="1" connect="1" arrows="1" fold="1" page="1" pageScale="1" pageWidth="4681" pageHeight="3300" math="0" shadow="0">
      <root>
        <mxCell id="0" />
        <mxCell id="1" parent="0" />
        <mxCell id="V8qkD6h360J0XXm_9jXh-16" value="" style="group;rotation=-90;" vertex="1" connectable="0" parent="1">
          <mxGeometry x="1314" y="944" width="84" height="34" as="geometry" />
        </mxCell>
        <mxCell id="V8qkD6h360J0XXm_9jXh-17" value="" style="endArrow=none;html=1;rounded=0;" edge="1" parent="V8qkD6h360J0XXm_9jXh-16">
          <mxGeometry width="50" height="50" relative="1" as="geometry">
            <mxPoint x="30" y="59" as="sourcePoint" />
            <mxPoint x="30" y="-21" as="targetPoint" />
          </mxGeometry>
        </mxCell>
        <mxCell id="V8qkD6h360J0XXm_9jXh-18" value="" style="endArrow=none;html=1;rounded=0;" edge="1" parent="V8qkD6h360J0XXm_9jXh-16">
          <mxGeometry width="50" height="50" relative="1" as="geometry">
            <mxPoint x="54" y="59" as="sourcePoint" />
            <mxPoint x="54" y="-21" as="targetPoint" />
          </mxGeometry>
        </mxCell>
        <mxCell id="V8qkD6h360J0XXm_9jXh-19" value="" style="endArrow=none;html=1;rounded=0;" edge="1" parent="V8qkD6h360J0XXm_9jXh-16">
          <mxGeometry width="50" height="50" relative="1" as="geometry">
            <mxPoint x="59" y="15" as="sourcePoint" />
            <mxPoint x="54" y="19" as="targetPoint" />
          </mxGeometry>
        </mxCell>
        <mxCell id="V8qkD6h360J0XXm_9jXh-20" value="" style="endArrow=none;html=1;rounded=0;" edge="1" parent="V8qkD6h360J0XXm_9jXh-16">
          <mxGeometry width="50" height="50" relative="1" as="geometry">
            <mxPoint x="59" y="35" as="sourcePoint" />
            <mxPoint x="54" y="39" as="targetPoint" />
          </mxGeometry>
        </mxCell>
        <mxCell id="V8qkD6h360J0XXm_9jXh-21" value="" style="endArrow=none;html=1;rounded=0;" edge="1" parent="V8qkD6h360J0XXm_9jXh-16">
          <mxGeometry width="50" height="50" relative="1" as="geometry">
            <mxPoint x="59" y="55" as="sourcePoint" />
            <mxPoint x="54" y="59" as="targetPoint" />
          </mxGeometry>
        </mxCell>
        <mxCell id="V8qkD6h360J0XXm_9jXh-22" value="" style="endArrow=none;html=1;rounded=0;" edge="1" parent="V8qkD6h360J0XXm_9jXh-16">
          <mxGeometry width="50" height="50" relative="1" as="geometry">
            <mxPoint x="59" y="-25" as="sourcePoint" />
            <mxPoint x="54" y="-21" as="targetPoint" />
          </mxGeometry>
        </mxCell>
        <mxCell id="V8qkD6h360J0XXm_9jXh-23" value="" style="endArrow=none;html=1;rounded=0;" edge="1" parent="V8qkD6h360J0XXm_9jXh-16">
          <mxGeometry width="50" height="50" relative="1" as="geometry">
            <mxPoint x="59" y="-5" as="sourcePoint" />
            <mxPoint x="54" y="-1" as="targetPoint" />
          </mxGeometry>
        </mxCell>
        <mxCell id="V8qkD6h360J0XXm_9jXh-24" value="" style="endArrow=none;html=1;rounded=0;" edge="1" parent="V8qkD6h360J0XXm_9jXh-16">
          <mxGeometry width="50" height="50" relative="1" as="geometry">
            <mxPoint x="59" y="15" as="sourcePoint" />
            <mxPoint x="54" y="19" as="targetPoint" />
          </mxGeometry>
        </mxCell>
        <mxCell id="V8qkD6h360J0XXm_9jXh-25" value="" style="endArrow=none;html=1;rounded=0;" edge="1" parent="V8qkD6h360J0XXm_9jXh-16">
          <mxGeometry width="50" height="50" relative="1" as="geometry">
            <mxPoint x="25" y="35" as="sourcePoint" />
            <mxPoint x="30" y="39" as="targetPoint" />
          </mxGeometry>
        </mxCell>
        <mxCell id="V8qkD6h360J0XXm_9jXh-26" value="" style="endArrow=none;html=1;rounded=0;" edge="1" parent="V8qkD6h360J0XXm_9jXh-16">
          <mxGeometry width="50" height="50" relative="1" as="geometry">
            <mxPoint x="25" y="55" as="sourcePoint" />
            <mxPoint x="30" y="59" as="targetPoint" />
          </mxGeometry>
        </mxCell>
        <mxCell id="V8qkD6h360J0XXm_9jXh-27" value="" style="endArrow=none;html=1;rounded=0;" edge="1" parent="V8qkD6h360J0XXm_9jXh-16">
          <mxGeometry width="50" height="50" relative="1" as="geometry">
            <mxPoint x="25" y="-25" as="sourcePoint" />
            <mxPoint x="30" y="-21" as="targetPoint" />
          </mxGeometry>
        </mxCell>
        <mxCell id="V8qkD6h360J0XXm_9jXh-28" value="" style="endArrow=none;html=1;rounded=0;" edge="1" parent="V8qkD6h360J0XXm_9jXh-16">
          <mxGeometry width="50" height="50" relative="1" as="geometry">
            <mxPoint x="25" y="-5" as="sourcePoint" />
            <mxPoint x="30" y="-1" as="targetPoint" />
          </mxGeometry>
        </mxCell>
        <mxCell id="V8qkD6h360J0XXm_9jXh-29" value="" style="endArrow=none;html=1;rounded=0;" edge="1" parent="V8qkD6h360J0XXm_9jXh-16">
          <mxGeometry width="50" height="50" relative="1" as="geometry">
            <mxPoint x="25" y="15" as="sourcePoint" />
            <mxPoint x="30" y="19" as="targetPoint" />
          </mxGeometry>
        </mxCell>
        <mxCell id="V8qkD6h360J0XXm_9jXh-30" value="" style="endArrow=none;html=1;rounded=0;" edge="1" parent="V8qkD6h360J0XXm_9jXh-16">
          <mxGeometry width="50" height="50" relative="1" as="geometry">
            <mxPoint x="25" y="25" as="sourcePoint" />
            <mxPoint x="30" y="29" as="targetPoint" />
          </mxGeometry>
        </mxCell>
        <mxCell id="V8qkD6h360J0XXm_9jXh-31" value="" style="endArrow=none;html=1;rounded=0;" edge="1" parent="V8qkD6h360J0XXm_9jXh-16">
          <mxGeometry width="50" height="50" relative="1" as="geometry">
            <mxPoint x="25" y="45" as="sourcePoint" />
            <mxPoint x="30" y="49" as="targetPoint" />
          </mxGeometry>
        </mxCell>
        <mxCell id="V8qkD6h360J0XXm_9jXh-32" value="" style="endArrow=none;html=1;rounded=0;" edge="1" parent="V8qkD6h360J0XXm_9jXh-16">
          <mxGeometry width="50" height="50" relative="1" as="geometry">
            <mxPoint x="25" y="-15" as="sourcePoint" />
            <mxPoint x="30" y="-11" as="targetPoint" />
          </mxGeometry>
        </mxCell>
        <mxCell id="V8qkD6h360J0XXm_9jXh-33" value="" style="endArrow=none;html=1;rounded=0;" edge="1" parent="V8qkD6h360J0XXm_9jXh-16">
          <mxGeometry width="50" height="50" relative="1" as="geometry">
            <mxPoint x="25" y="5" as="sourcePoint" />
            <mxPoint x="30" y="9" as="targetPoint" />
          </mxGeometry>
        </mxCell>
        <mxCell id="V8qkD6h360J0XXm_9jXh-34" value="" style="endArrow=none;html=1;rounded=0;" edge="1" parent="V8qkD6h360J0XXm_9jXh-16">
          <mxGeometry width="50" height="50" relative="1" as="geometry">
            <mxPoint x="59" y="25" as="sourcePoint" />
            <mxPoint x="54" y="29" as="targetPoint" />
          </mxGeometry>
        </mxCell>
        <mxCell id="V8qkD6h360J0XXm_9jXh-35" value="" style="endArrow=none;html=1;rounded=0;" edge="1" parent="V8qkD6h360J0XXm_9jXh-16">
          <mxGeometry width="50" height="50" relative="1" as="geometry">
            <mxPoint x="59" y="45" as="sourcePoint" />
            <mxPoint x="54" y="49" as="targetPoint" />
          </mxGeometry>
        </mxCell>
        <mxCell id="V8qkD6h360J0XXm_9jXh-36" value="" style="endArrow=none;html=1;rounded=0;" edge="1" parent="V8qkD6h360J0XXm_9jXh-16">
          <mxGeometry width="50" height="50" relative="1" as="geometry">
            <mxPoint x="59" y="-15" as="sourcePoint" />
            <mxPoint x="54" y="-11" as="targetPoint" />
          </mxGeometry>
        </mxCell>
        <mxCell id="V8qkD6h360J0XXm_9jXh-37" value="" style="endArrow=none;html=1;rounded=0;" edge="1" parent="V8qkD6h360J0XXm_9jXh-16">
          <mxGeometry width="50" height="50" relative="1" as="geometry">
            <mxPoint x="59" y="5" as="sourcePoint" />
            <mxPoint x="54" y="9" as="targetPoint" />
          </mxGeometry>
        </mxCell>
        <mxCell id="V8qkD6h360J0XXm_9jXh-38" value="" style="ellipse;whiteSpace=wrap;html=1;aspect=fixed;fillColor=#919191;strokeWidth=0;perimeterSpacing=0;rotation=-90;" vertex="1" parent="V8qkD6h360J0XXm_9jXh-16">
          <mxGeometry x="31" y="7" width="23" height="23" as="geometry" />
        </mxCell>
        <mxCell id="U_zzFxPC7SBMpID13DP9-139" value="" style="shape=or;whiteSpace=wrap;html=1;rotation=90;fillColor=#919191;" parent="1" vertex="1">
          <mxGeometry x="1007" y="846" width="60" height="80" as="geometry" />
        </mxCell>
        <mxCell id="V0cMrDeBwhReGAPYOjV9-292" value="" style="endArrow=none;html=1;rounded=0;exitX=0;exitY=1;exitDx=0;exitDy=0;strokeWidth=3;" parent="1" source="V0cMrDeBwhReGAPYOjV9-279" target="V0cMrDeBwhReGAPYOjV9-286" edge="1">
          <mxGeometry width="50" height="50" relative="1" as="geometry">
            <mxPoint x="1409" y="352.65999999999997" as="sourcePoint" />
            <mxPoint x="1454" y="395.65999999999997" as="targetPoint" />
          </mxGeometry>
        </mxCell>
        <mxCell id="V0cMrDeBwhReGAPYOjV9-277" value="" style="endArrow=none;html=1;rounded=0;strokeWidth=3;" parent="1" target="V0cMrDeBwhReGAPYOjV9-274" edge="1">
          <mxGeometry width="50" height="50" relative="1" as="geometry">
            <mxPoint x="942" y="630" as="sourcePoint" />
            <mxPoint x="987" y="673" as="targetPoint" />
          </mxGeometry>
        </mxCell>
        <mxCell id="V0cMrDeBwhReGAPYOjV9-127" value="" style="endArrow=none;html=1;rounded=0;entryX=1;entryY=1;entryDx=0;entryDy=0;strokeWidth=3;" parent="1" source="V0cMrDeBwhReGAPYOjV9-120" target="V0cMrDeBwhReGAPYOjV9-103" edge="1">
          <mxGeometry width="50" height="50" relative="1" as="geometry">
            <mxPoint x="1354" y="821" as="sourcePoint" />
            <mxPoint x="1396" y="739" as="targetPoint" />
          </mxGeometry>
        </mxCell>
        <mxCell id="V0cMrDeBwhReGAPYOjV9-75" value="" style="endArrow=none;html=1;rounded=0;strokeWidth=3;" parent="1" source="V0cMrDeBwhReGAPYOjV9-6" edge="1">
          <mxGeometry width="50" height="50" relative="1" as="geometry">
            <mxPoint x="360" y="260" as="sourcePoint" />
            <mxPoint x="410" y="160" as="targetPoint" />
          </mxGeometry>
        </mxCell>
        <mxCell id="V0cMrDeBwhReGAPYOjV9-6" value="" style="ellipse;whiteSpace=wrap;html=1;aspect=fixed;" parent="1" vertex="1">
          <mxGeometry x="350" y="259" width="20" height="20" as="geometry" />
        </mxCell>
        <mxCell id="V0cMrDeBwhReGAPYOjV9-25" value="" style="group" parent="1" vertex="1" connectable="0">
          <mxGeometry x="380" y="310" width="44" height="45" as="geometry" />
        </mxCell>
        <mxCell id="V0cMrDeBwhReGAPYOjV9-5" value="" style="group" parent="V0cMrDeBwhReGAPYOjV9-25" vertex="1" connectable="0">
          <mxGeometry width="40" height="40" as="geometry" />
        </mxCell>
        <mxCell id="V0cMrDeBwhReGAPYOjV9-2" value="" style="endArrow=none;html=1;rounded=0;" parent="V0cMrDeBwhReGAPYOjV9-5" edge="1">
          <mxGeometry width="50" height="50" relative="1" as="geometry">
            <mxPoint y="40" as="sourcePoint" />
            <mxPoint y="40" as="targetPoint" />
            <Array as="points">
              <mxPoint x="30" y="40" />
              <mxPoint x="40" y="40" />
              <mxPoint x="30" />
              <mxPoint x="10" />
            </Array>
          </mxGeometry>
        </mxCell>
        <mxCell id="V0cMrDeBwhReGAPYOjV9-3" value="" style="ellipse;whiteSpace=wrap;html=1;aspect=fixed;" parent="V0cMrDeBwhReGAPYOjV9-5" vertex="1">
          <mxGeometry x="10" y="10" width="20" height="20" as="geometry" />
        </mxCell>
        <mxCell id="V0cMrDeBwhReGAPYOjV9-20" value="" style="endArrow=none;html=1;rounded=0;" parent="V0cMrDeBwhReGAPYOjV9-25" edge="1">
          <mxGeometry width="50" height="50" relative="1" as="geometry">
            <mxPoint x="14" y="45" as="sourcePoint" />
            <mxPoint x="10" y="40" as="targetPoint" />
          </mxGeometry>
        </mxCell>
        <mxCell id="V0cMrDeBwhReGAPYOjV9-21" value="" style="endArrow=none;html=1;rounded=0;" parent="V0cMrDeBwhReGAPYOjV9-25" edge="1">
          <mxGeometry width="50" height="50" relative="1" as="geometry">
            <mxPoint x="24" y="45" as="sourcePoint" />
            <mxPoint x="20" y="40" as="targetPoint" />
          </mxGeometry>
        </mxCell>
        <mxCell id="V0cMrDeBwhReGAPYOjV9-22" value="" style="endArrow=none;html=1;rounded=0;" parent="V0cMrDeBwhReGAPYOjV9-25" edge="1">
          <mxGeometry width="50" height="50" relative="1" as="geometry">
            <mxPoint x="34" y="45" as="sourcePoint" />
            <mxPoint x="30" y="40" as="targetPoint" />
          </mxGeometry>
        </mxCell>
        <mxCell id="V0cMrDeBwhReGAPYOjV9-23" value="" style="endArrow=none;html=1;rounded=0;" parent="V0cMrDeBwhReGAPYOjV9-25" edge="1">
          <mxGeometry width="50" height="50" relative="1" as="geometry">
            <mxPoint x="44" y="45" as="sourcePoint" />
            <mxPoint x="40" y="40" as="targetPoint" />
          </mxGeometry>
        </mxCell>
        <mxCell id="V0cMrDeBwhReGAPYOjV9-24" value="" style="endArrow=none;html=1;rounded=0;" parent="V0cMrDeBwhReGAPYOjV9-25" edge="1">
          <mxGeometry width="50" height="50" relative="1" as="geometry">
            <mxPoint x="4" y="45" as="sourcePoint" />
            <mxPoint y="40" as="targetPoint" />
          </mxGeometry>
        </mxCell>
        <mxCell id="V0cMrDeBwhReGAPYOjV9-49" value="" style="group" parent="1" vertex="1" connectable="0">
          <mxGeometry x="360" y="383" width="84" height="34" as="geometry" />
        </mxCell>
        <mxCell id="V0cMrDeBwhReGAPYOjV9-26" value="" style="endArrow=none;html=1;rounded=0;" parent="V0cMrDeBwhReGAPYOjV9-49" edge="1">
          <mxGeometry width="50" height="50" relative="1" as="geometry">
            <mxPoint y="5" as="sourcePoint" />
            <mxPoint x="80" y="5" as="targetPoint" />
          </mxGeometry>
        </mxCell>
        <mxCell id="V0cMrDeBwhReGAPYOjV9-27" value="" style="endArrow=none;html=1;rounded=0;" parent="V0cMrDeBwhReGAPYOjV9-49" edge="1">
          <mxGeometry width="50" height="50" relative="1" as="geometry">
            <mxPoint y="29" as="sourcePoint" />
            <mxPoint x="80" y="29" as="targetPoint" />
          </mxGeometry>
        </mxCell>
        <mxCell id="V0cMrDeBwhReGAPYOjV9-29" value="" style="rounded=0;whiteSpace=wrap;html=1;" parent="V0cMrDeBwhReGAPYOjV9-49" vertex="1">
          <mxGeometry x="20" y="7" width="40" height="20" as="geometry" />
        </mxCell>
        <mxCell id="V0cMrDeBwhReGAPYOjV9-30" value="" style="endArrow=none;html=1;rounded=0;" parent="V0cMrDeBwhReGAPYOjV9-49" edge="1">
          <mxGeometry width="50" height="50" relative="1" as="geometry">
            <mxPoint x="44" y="34" as="sourcePoint" />
            <mxPoint x="40" y="29" as="targetPoint" />
          </mxGeometry>
        </mxCell>
        <mxCell id="V0cMrDeBwhReGAPYOjV9-31" value="" style="endArrow=none;html=1;rounded=0;" parent="V0cMrDeBwhReGAPYOjV9-49" edge="1">
          <mxGeometry width="50" height="50" relative="1" as="geometry">
            <mxPoint x="24" y="34" as="sourcePoint" />
            <mxPoint x="20" y="29" as="targetPoint" />
          </mxGeometry>
        </mxCell>
        <mxCell id="V0cMrDeBwhReGAPYOjV9-32" value="" style="endArrow=none;html=1;rounded=0;" parent="V0cMrDeBwhReGAPYOjV9-49" edge="1">
          <mxGeometry width="50" height="50" relative="1" as="geometry">
            <mxPoint x="4" y="34" as="sourcePoint" />
            <mxPoint y="29" as="targetPoint" />
          </mxGeometry>
        </mxCell>
        <mxCell id="V0cMrDeBwhReGAPYOjV9-33" value="" style="endArrow=none;html=1;rounded=0;" parent="V0cMrDeBwhReGAPYOjV9-49" edge="1">
          <mxGeometry width="50" height="50" relative="1" as="geometry">
            <mxPoint x="84" y="34" as="sourcePoint" />
            <mxPoint x="80" y="29" as="targetPoint" />
          </mxGeometry>
        </mxCell>
        <mxCell id="V0cMrDeBwhReGAPYOjV9-34" value="" style="endArrow=none;html=1;rounded=0;" parent="V0cMrDeBwhReGAPYOjV9-49" edge="1">
          <mxGeometry width="50" height="50" relative="1" as="geometry">
            <mxPoint x="64" y="34" as="sourcePoint" />
            <mxPoint x="60" y="29" as="targetPoint" />
          </mxGeometry>
        </mxCell>
        <mxCell id="V0cMrDeBwhReGAPYOjV9-35" value="" style="endArrow=none;html=1;rounded=0;" parent="V0cMrDeBwhReGAPYOjV9-49" edge="1">
          <mxGeometry width="50" height="50" relative="1" as="geometry">
            <mxPoint x="44" y="34" as="sourcePoint" />
            <mxPoint x="40" y="29" as="targetPoint" />
          </mxGeometry>
        </mxCell>
        <mxCell id="V0cMrDeBwhReGAPYOjV9-36" value="" style="endArrow=none;html=1;rounded=0;" parent="V0cMrDeBwhReGAPYOjV9-49" edge="1">
          <mxGeometry width="50" height="50" relative="1" as="geometry">
            <mxPoint x="24" as="sourcePoint" />
            <mxPoint x="20" y="5" as="targetPoint" />
          </mxGeometry>
        </mxCell>
        <mxCell id="V0cMrDeBwhReGAPYOjV9-37" value="" style="endArrow=none;html=1;rounded=0;" parent="V0cMrDeBwhReGAPYOjV9-49" edge="1">
          <mxGeometry width="50" height="50" relative="1" as="geometry">
            <mxPoint x="4" as="sourcePoint" />
            <mxPoint y="5" as="targetPoint" />
          </mxGeometry>
        </mxCell>
        <mxCell id="V0cMrDeBwhReGAPYOjV9-38" value="" style="endArrow=none;html=1;rounded=0;" parent="V0cMrDeBwhReGAPYOjV9-49" edge="1">
          <mxGeometry width="50" height="50" relative="1" as="geometry">
            <mxPoint x="84" as="sourcePoint" />
            <mxPoint x="80" y="5" as="targetPoint" />
          </mxGeometry>
        </mxCell>
        <mxCell id="V0cMrDeBwhReGAPYOjV9-39" value="" style="endArrow=none;html=1;rounded=0;" parent="V0cMrDeBwhReGAPYOjV9-49" edge="1">
          <mxGeometry width="50" height="50" relative="1" as="geometry">
            <mxPoint x="64" as="sourcePoint" />
            <mxPoint x="60" y="5" as="targetPoint" />
          </mxGeometry>
        </mxCell>
        <mxCell id="V0cMrDeBwhReGAPYOjV9-40" value="" style="endArrow=none;html=1;rounded=0;" parent="V0cMrDeBwhReGAPYOjV9-49" edge="1">
          <mxGeometry width="50" height="50" relative="1" as="geometry">
            <mxPoint x="44" as="sourcePoint" />
            <mxPoint x="40" y="5" as="targetPoint" />
          </mxGeometry>
        </mxCell>
        <mxCell id="V0cMrDeBwhReGAPYOjV9-41" value="" style="endArrow=none;html=1;rounded=0;" parent="V0cMrDeBwhReGAPYOjV9-49" edge="1">
          <mxGeometry width="50" height="50" relative="1" as="geometry">
            <mxPoint x="34" as="sourcePoint" />
            <mxPoint x="30" y="5" as="targetPoint" />
          </mxGeometry>
        </mxCell>
        <mxCell id="V0cMrDeBwhReGAPYOjV9-42" value="" style="endArrow=none;html=1;rounded=0;" parent="V0cMrDeBwhReGAPYOjV9-49" edge="1">
          <mxGeometry width="50" height="50" relative="1" as="geometry">
            <mxPoint x="14" as="sourcePoint" />
            <mxPoint x="10" y="5" as="targetPoint" />
          </mxGeometry>
        </mxCell>
        <mxCell id="V0cMrDeBwhReGAPYOjV9-43" value="" style="endArrow=none;html=1;rounded=0;" parent="V0cMrDeBwhReGAPYOjV9-49" edge="1">
          <mxGeometry width="50" height="50" relative="1" as="geometry">
            <mxPoint x="74" as="sourcePoint" />
            <mxPoint x="70" y="5" as="targetPoint" />
          </mxGeometry>
        </mxCell>
        <mxCell id="V0cMrDeBwhReGAPYOjV9-44" value="" style="endArrow=none;html=1;rounded=0;" parent="V0cMrDeBwhReGAPYOjV9-49" edge="1">
          <mxGeometry width="50" height="50" relative="1" as="geometry">
            <mxPoint x="54" as="sourcePoint" />
            <mxPoint x="50" y="5" as="targetPoint" />
          </mxGeometry>
        </mxCell>
        <mxCell id="V0cMrDeBwhReGAPYOjV9-45" value="" style="endArrow=none;html=1;rounded=0;" parent="V0cMrDeBwhReGAPYOjV9-49" edge="1">
          <mxGeometry width="50" height="50" relative="1" as="geometry">
            <mxPoint x="34" y="34" as="sourcePoint" />
            <mxPoint x="30" y="29" as="targetPoint" />
          </mxGeometry>
        </mxCell>
        <mxCell id="V0cMrDeBwhReGAPYOjV9-46" value="" style="endArrow=none;html=1;rounded=0;" parent="V0cMrDeBwhReGAPYOjV9-49" edge="1">
          <mxGeometry width="50" height="50" relative="1" as="geometry">
            <mxPoint x="14" y="34" as="sourcePoint" />
            <mxPoint x="10" y="29" as="targetPoint" />
          </mxGeometry>
        </mxCell>
        <mxCell id="V0cMrDeBwhReGAPYOjV9-47" value="" style="endArrow=none;html=1;rounded=0;" parent="V0cMrDeBwhReGAPYOjV9-49" edge="1">
          <mxGeometry width="50" height="50" relative="1" as="geometry">
            <mxPoint x="74" y="34" as="sourcePoint" />
            <mxPoint x="70" y="29" as="targetPoint" />
          </mxGeometry>
        </mxCell>
        <mxCell id="V0cMrDeBwhReGAPYOjV9-48" value="" style="endArrow=none;html=1;rounded=0;" parent="V0cMrDeBwhReGAPYOjV9-49" edge="1">
          <mxGeometry width="50" height="50" relative="1" as="geometry">
            <mxPoint x="54" y="34" as="sourcePoint" />
            <mxPoint x="50" y="29" as="targetPoint" />
          </mxGeometry>
        </mxCell>
        <mxCell id="V0cMrDeBwhReGAPYOjV9-50" value="" style="group" parent="1" vertex="1" connectable="0">
          <mxGeometry x="1063" y="789" width="84" height="79" as="geometry" />
        </mxCell>
        <mxCell id="V0cMrDeBwhReGAPYOjV9-51" value="" style="endArrow=none;html=1;rounded=0;" parent="V0cMrDeBwhReGAPYOjV9-50" edge="1">
          <mxGeometry width="50" height="50" relative="1" as="geometry">
            <mxPoint y="5" as="sourcePoint" />
            <mxPoint x="80" y="5" as="targetPoint" />
          </mxGeometry>
        </mxCell>
        <mxCell id="V0cMrDeBwhReGAPYOjV9-52" value="" style="endArrow=none;html=1;rounded=0;" parent="V0cMrDeBwhReGAPYOjV9-50" edge="1">
          <mxGeometry width="50" height="50" relative="1" as="geometry">
            <mxPoint y="29" as="sourcePoint" />
            <mxPoint x="80" y="29" as="targetPoint" />
          </mxGeometry>
        </mxCell>
        <mxCell id="V0cMrDeBwhReGAPYOjV9-54" value="" style="endArrow=none;html=1;rounded=0;" parent="V0cMrDeBwhReGAPYOjV9-50" edge="1">
          <mxGeometry width="50" height="50" relative="1" as="geometry">
            <mxPoint x="44" y="34" as="sourcePoint" />
            <mxPoint x="40" y="29" as="targetPoint" />
          </mxGeometry>
        </mxCell>
        <mxCell id="V0cMrDeBwhReGAPYOjV9-55" value="" style="endArrow=none;html=1;rounded=0;" parent="V0cMrDeBwhReGAPYOjV9-50" edge="1">
          <mxGeometry width="50" height="50" relative="1" as="geometry">
            <mxPoint x="24" y="34" as="sourcePoint" />
            <mxPoint x="20" y="29" as="targetPoint" />
          </mxGeometry>
        </mxCell>
        <mxCell id="V0cMrDeBwhReGAPYOjV9-56" value="" style="endArrow=none;html=1;rounded=0;" parent="V0cMrDeBwhReGAPYOjV9-50" edge="1">
          <mxGeometry width="50" height="50" relative="1" as="geometry">
            <mxPoint x="4" y="34" as="sourcePoint" />
            <mxPoint y="29" as="targetPoint" />
          </mxGeometry>
        </mxCell>
        <mxCell id="V0cMrDeBwhReGAPYOjV9-57" value="" style="endArrow=none;html=1;rounded=0;" parent="V0cMrDeBwhReGAPYOjV9-50" edge="1">
          <mxGeometry width="50" height="50" relative="1" as="geometry">
            <mxPoint x="84" y="34" as="sourcePoint" />
            <mxPoint x="80" y="29" as="targetPoint" />
          </mxGeometry>
        </mxCell>
        <mxCell id="V0cMrDeBwhReGAPYOjV9-58" value="" style="endArrow=none;html=1;rounded=0;" parent="V0cMrDeBwhReGAPYOjV9-50" edge="1">
          <mxGeometry width="50" height="50" relative="1" as="geometry">
            <mxPoint x="64" y="34" as="sourcePoint" />
            <mxPoint x="60" y="29" as="targetPoint" />
          </mxGeometry>
        </mxCell>
        <mxCell id="V0cMrDeBwhReGAPYOjV9-59" value="" style="endArrow=none;html=1;rounded=0;" parent="V0cMrDeBwhReGAPYOjV9-50" edge="1">
          <mxGeometry width="50" height="50" relative="1" as="geometry">
            <mxPoint x="44" y="34" as="sourcePoint" />
            <mxPoint x="40" y="29" as="targetPoint" />
          </mxGeometry>
        </mxCell>
        <mxCell id="V0cMrDeBwhReGAPYOjV9-60" value="" style="endArrow=none;html=1;rounded=0;" parent="V0cMrDeBwhReGAPYOjV9-50" edge="1">
          <mxGeometry width="50" height="50" relative="1" as="geometry">
            <mxPoint x="24" as="sourcePoint" />
            <mxPoint x="20" y="5" as="targetPoint" />
          </mxGeometry>
        </mxCell>
        <mxCell id="V0cMrDeBwhReGAPYOjV9-61" value="" style="endArrow=none;html=1;rounded=0;" parent="V0cMrDeBwhReGAPYOjV9-50" edge="1">
          <mxGeometry width="50" height="50" relative="1" as="geometry">
            <mxPoint x="4" as="sourcePoint" />
            <mxPoint y="5" as="targetPoint" />
          </mxGeometry>
        </mxCell>
        <mxCell id="V0cMrDeBwhReGAPYOjV9-62" value="" style="endArrow=none;html=1;rounded=0;" parent="V0cMrDeBwhReGAPYOjV9-50" edge="1">
          <mxGeometry width="50" height="50" relative="1" as="geometry">
            <mxPoint x="84" as="sourcePoint" />
            <mxPoint x="80" y="5" as="targetPoint" />
          </mxGeometry>
        </mxCell>
        <mxCell id="V0cMrDeBwhReGAPYOjV9-63" value="" style="endArrow=none;html=1;rounded=0;" parent="V0cMrDeBwhReGAPYOjV9-50" edge="1">
          <mxGeometry width="50" height="50" relative="1" as="geometry">
            <mxPoint x="64" as="sourcePoint" />
            <mxPoint x="60" y="5" as="targetPoint" />
          </mxGeometry>
        </mxCell>
        <mxCell id="V0cMrDeBwhReGAPYOjV9-64" value="" style="endArrow=none;html=1;rounded=0;" parent="V0cMrDeBwhReGAPYOjV9-50" edge="1">
          <mxGeometry width="50" height="50" relative="1" as="geometry">
            <mxPoint x="44" as="sourcePoint" />
            <mxPoint x="40" y="5" as="targetPoint" />
          </mxGeometry>
        </mxCell>
        <mxCell id="V0cMrDeBwhReGAPYOjV9-65" value="" style="endArrow=none;html=1;rounded=0;" parent="V0cMrDeBwhReGAPYOjV9-50" edge="1">
          <mxGeometry width="50" height="50" relative="1" as="geometry">
            <mxPoint x="34" as="sourcePoint" />
            <mxPoint x="30" y="5" as="targetPoint" />
          </mxGeometry>
        </mxCell>
        <mxCell id="V0cMrDeBwhReGAPYOjV9-66" value="" style="endArrow=none;html=1;rounded=0;" parent="V0cMrDeBwhReGAPYOjV9-50" edge="1">
          <mxGeometry width="50" height="50" relative="1" as="geometry">
            <mxPoint x="14" as="sourcePoint" />
            <mxPoint x="10" y="5" as="targetPoint" />
          </mxGeometry>
        </mxCell>
        <mxCell id="V0cMrDeBwhReGAPYOjV9-67" value="" style="endArrow=none;html=1;rounded=0;" parent="V0cMrDeBwhReGAPYOjV9-50" edge="1">
          <mxGeometry width="50" height="50" relative="1" as="geometry">
            <mxPoint x="74" as="sourcePoint" />
            <mxPoint x="70" y="5" as="targetPoint" />
          </mxGeometry>
        </mxCell>
        <mxCell id="V0cMrDeBwhReGAPYOjV9-68" value="" style="endArrow=none;html=1;rounded=0;" parent="V0cMrDeBwhReGAPYOjV9-50" edge="1">
          <mxGeometry width="50" height="50" relative="1" as="geometry">
            <mxPoint x="54" as="sourcePoint" />
            <mxPoint x="50" y="5" as="targetPoint" />
          </mxGeometry>
        </mxCell>
        <mxCell id="V0cMrDeBwhReGAPYOjV9-69" value="" style="endArrow=none;html=1;rounded=0;" parent="V0cMrDeBwhReGAPYOjV9-50" edge="1">
          <mxGeometry width="50" height="50" relative="1" as="geometry">
            <mxPoint x="34" y="34" as="sourcePoint" />
            <mxPoint x="30" y="29" as="targetPoint" />
          </mxGeometry>
        </mxCell>
        <mxCell id="V0cMrDeBwhReGAPYOjV9-70" value="" style="endArrow=none;html=1;rounded=0;" parent="V0cMrDeBwhReGAPYOjV9-50" edge="1">
          <mxGeometry width="50" height="50" relative="1" as="geometry">
            <mxPoint x="14" y="34" as="sourcePoint" />
            <mxPoint x="10" y="29" as="targetPoint" />
          </mxGeometry>
        </mxCell>
        <mxCell id="V0cMrDeBwhReGAPYOjV9-71" value="" style="endArrow=none;html=1;rounded=0;" parent="V0cMrDeBwhReGAPYOjV9-50" edge="1">
          <mxGeometry width="50" height="50" relative="1" as="geometry">
            <mxPoint x="74" y="34" as="sourcePoint" />
            <mxPoint x="70" y="29" as="targetPoint" />
          </mxGeometry>
        </mxCell>
        <mxCell id="V0cMrDeBwhReGAPYOjV9-72" value="" style="endArrow=none;html=1;rounded=0;" parent="V0cMrDeBwhReGAPYOjV9-50" edge="1">
          <mxGeometry width="50" height="50" relative="1" as="geometry">
            <mxPoint x="54" y="34" as="sourcePoint" />
            <mxPoint x="50" y="29" as="targetPoint" />
          </mxGeometry>
        </mxCell>
        <mxCell id="V0cMrDeBwhReGAPYOjV9-73" value="" style="ellipse;whiteSpace=wrap;html=1;aspect=fixed;fillColor=#919191;strokeWidth=0;perimeterSpacing=0;" parent="V0cMrDeBwhReGAPYOjV9-50" vertex="1">
          <mxGeometry x="29" y="5.5" width="23" height="23" as="geometry" />
        </mxCell>
        <mxCell id="U_zzFxPC7SBMpID13DP9-193" value="" style="endArrow=none;html=1;rounded=0;strokeWidth=3;" parent="V0cMrDeBwhReGAPYOjV9-50" source="U_zzFxPC7SBMpID13DP9-194" target="U_zzFxPC7SBMpID13DP9-195" edge="1">
          <mxGeometry width="50" height="50" relative="1" as="geometry">
            <mxPoint x="14.5" y="57" as="sourcePoint" />
            <mxPoint x="64.5" y="-43" as="targetPoint" />
          </mxGeometry>
        </mxCell>
        <mxCell id="U_zzFxPC7SBMpID13DP9-195" value="" style="ellipse;whiteSpace=wrap;html=1;aspect=fixed;" parent="V0cMrDeBwhReGAPYOjV9-50" vertex="1">
          <mxGeometry x="31" y="7.5" width="20" height="20" as="geometry" />
        </mxCell>
        <mxCell id="U_zzFxPC7SBMpID13DP9-194" value="" style="ellipse;whiteSpace=wrap;html=1;aspect=fixed;" parent="V0cMrDeBwhReGAPYOjV9-50" vertex="1">
          <mxGeometry x="4.5" y="56" width="20" height="20" as="geometry" />
        </mxCell>
        <mxCell id="V0cMrDeBwhReGAPYOjV9-76" value="" style="ellipse;whiteSpace=wrap;html=1;aspect=fixed;" parent="1" vertex="1">
          <mxGeometry x="400" y="150" width="20" height="20" as="geometry" />
        </mxCell>
        <mxCell id="V0cMrDeBwhReGAPYOjV9-79" value="" style="shape=manualInput;whiteSpace=wrap;html=1;size=140;gradientColor=none;fillColor=#C4C4C4;" parent="1" vertex="1">
          <mxGeometry x="450" y="160" width="80" height="110" as="geometry" />
        </mxCell>
        <mxCell id="V0cMrDeBwhReGAPYOjV9-80" value="" style="ellipse;whiteSpace=wrap;html=1;aspect=fixed;" parent="1" vertex="1">
          <mxGeometry x="440" y="260" width="20" height="20" as="geometry" />
        </mxCell>
        <mxCell id="V0cMrDeBwhReGAPYOjV9-81" value="" style="ellipse;whiteSpace=wrap;html=1;aspect=fixed;" parent="1" vertex="1">
          <mxGeometry x="520" y="260" width="20" height="20" as="geometry" />
        </mxCell>
        <mxCell id="V0cMrDeBwhReGAPYOjV9-82" value="" style="ellipse;whiteSpace=wrap;html=1;aspect=fixed;" parent="1" vertex="1">
          <mxGeometry x="520" y="150" width="20" height="20" as="geometry" />
        </mxCell>
        <mxCell id="V0cMrDeBwhReGAPYOjV9-89" value="" style="shape=trapezoid;perimeter=trapezoidPerimeter;whiteSpace=wrap;html=1;fixedSize=1;fillColor=#C4C4C4;size=40;" parent="1" vertex="1">
          <mxGeometry x="580" y="190" width="120" height="60" as="geometry" />
        </mxCell>
        <mxCell id="V0cMrDeBwhReGAPYOjV9-90" value="" style="ellipse;whiteSpace=wrap;html=1;aspect=fixed;" parent="1" vertex="1">
          <mxGeometry x="610" y="180" width="20" height="20" as="geometry" />
        </mxCell>
        <mxCell id="V0cMrDeBwhReGAPYOjV9-91" value="" style="ellipse;whiteSpace=wrap;html=1;aspect=fixed;" parent="1" vertex="1">
          <mxGeometry x="650" y="180" width="20" height="20" as="geometry" />
        </mxCell>
        <mxCell id="V0cMrDeBwhReGAPYOjV9-92" value="" style="ellipse;whiteSpace=wrap;html=1;aspect=fixed;" parent="1" vertex="1">
          <mxGeometry x="690" y="240" width="20" height="20" as="geometry" />
        </mxCell>
        <mxCell id="V0cMrDeBwhReGAPYOjV9-93" value="" style="ellipse;whiteSpace=wrap;html=1;aspect=fixed;" parent="1" vertex="1">
          <mxGeometry x="570" y="240" width="20" height="20" as="geometry" />
        </mxCell>
        <mxCell id="V0cMrDeBwhReGAPYOjV9-94" value="" style="shape=or;whiteSpace=wrap;html=1;fillColor=#B3B3B3;" parent="1" vertex="1">
          <mxGeometry x="500" y="460" width="34" height="80" as="geometry" />
        </mxCell>
        <mxCell id="V0cMrDeBwhReGAPYOjV9-95" value="" style="shape=or;whiteSpace=wrap;html=1;fillColor=#B3B3B3;rotation=-180;" parent="1" vertex="1">
          <mxGeometry x="534" y="454" width="60" height="80" as="geometry" />
        </mxCell>
        <mxCell id="V0cMrDeBwhReGAPYOjV9-96" value="" style="curved=1;endArrow=none;html=1;rounded=0;endFill=0;" parent="1" edge="1">
          <mxGeometry width="50" height="50" relative="1" as="geometry">
            <mxPoint x="570" y="412.65999999999997" as="sourcePoint" />
            <mxPoint x="570" y="388.65999999999997" as="targetPoint" />
            <Array as="points">
              <mxPoint x="540" y="412.65999999999997" />
              <mxPoint x="540" y="388.65999999999997" />
            </Array>
          </mxGeometry>
        </mxCell>
        <mxCell id="V0cMrDeBwhReGAPYOjV9-97" value="" style="endArrow=none;html=1;rounded=0;" parent="1" edge="1">
          <mxGeometry width="50" height="50" relative="1" as="geometry">
            <mxPoint x="540" y="400" as="sourcePoint" />
            <mxPoint x="490" y="400" as="targetPoint" />
          </mxGeometry>
        </mxCell>
        <mxCell id="V0cMrDeBwhReGAPYOjV9-98" value="" style="endArrow=none;html=1;rounded=0;" parent="1" edge="1">
          <mxGeometry width="50" height="50" relative="1" as="geometry">
            <mxPoint x="570" y="412.65999999999997" as="sourcePoint" />
            <mxPoint x="630" y="412.65999999999997" as="targetPoint" />
          </mxGeometry>
        </mxCell>
        <mxCell id="V0cMrDeBwhReGAPYOjV9-99" value="" style="endArrow=none;html=1;rounded=0;" parent="1" edge="1">
          <mxGeometry width="50" height="50" relative="1" as="geometry">
            <mxPoint x="570" y="388.65999999999997" as="sourcePoint" />
            <mxPoint x="630" y="388.65999999999997" as="targetPoint" />
          </mxGeometry>
        </mxCell>
        <mxCell id="V0cMrDeBwhReGAPYOjV9-100" value="" style="rounded=0;whiteSpace=wrap;html=1;" parent="1" vertex="1">
          <mxGeometry x="570" y="390.65999999999997" width="40" height="20" as="geometry" />
        </mxCell>
        <mxCell id="V0cMrDeBwhReGAPYOjV9-101" value="" style="endArrow=none;html=1;rounded=0;exitX=1;exitY=0.5;exitDx=0;exitDy=0;" parent="1" source="V0cMrDeBwhReGAPYOjV9-100" edge="1">
          <mxGeometry width="50" height="50" relative="1" as="geometry">
            <mxPoint x="630" y="430.65999999999997" as="sourcePoint" />
            <mxPoint x="660" y="400.65999999999997" as="targetPoint" />
          </mxGeometry>
        </mxCell>
        <mxCell id="V0cMrDeBwhReGAPYOjV9-102" value="" style="ellipse;whiteSpace=wrap;html=1;aspect=fixed;" parent="1" vertex="1">
          <mxGeometry x="560" y="320.5" width="20" height="20" as="geometry" />
        </mxCell>
        <mxCell id="V0cMrDeBwhReGAPYOjV9-103" value="" style="shape=trapezoid;perimeter=trapezoidPerimeter;whiteSpace=wrap;html=1;fixedSize=1;fillColor=#C4C4C4;size=40;" parent="1" vertex="1">
          <mxGeometry x="1390" y="660" width="120" height="60" as="geometry" />
        </mxCell>
        <mxCell id="V0cMrDeBwhReGAPYOjV9-104" value="" style="ellipse;whiteSpace=wrap;html=1;aspect=fixed;" parent="1" vertex="1">
          <mxGeometry x="1420" y="650" width="20" height="20" as="geometry" />
        </mxCell>
        <mxCell id="V0cMrDeBwhReGAPYOjV9-105" value="" style="ellipse;whiteSpace=wrap;html=1;aspect=fixed;" parent="1" vertex="1">
          <mxGeometry x="1460" y="650" width="20" height="20" as="geometry" />
        </mxCell>
        <mxCell id="V0cMrDeBwhReGAPYOjV9-106" value="" style="ellipse;whiteSpace=wrap;html=1;aspect=fixed;" parent="1" vertex="1">
          <mxGeometry x="1500" y="710" width="20" height="20" as="geometry" />
        </mxCell>
        <mxCell id="V0cMrDeBwhReGAPYOjV9-107" value="" style="ellipse;whiteSpace=wrap;html=1;aspect=fixed;" parent="1" vertex="1">
          <mxGeometry x="1380" y="710" width="20" height="20" as="geometry" />
        </mxCell>
        <mxCell id="V0cMrDeBwhReGAPYOjV9-108" value="" style="group" parent="1" vertex="1" connectable="0">
          <mxGeometry x="1320" y="800" width="44" height="45" as="geometry" />
        </mxCell>
        <mxCell id="V0cMrDeBwhReGAPYOjV9-109" value="" style="group" parent="V0cMrDeBwhReGAPYOjV9-108" vertex="1" connectable="0">
          <mxGeometry width="40" height="40" as="geometry" />
        </mxCell>
        <mxCell id="V0cMrDeBwhReGAPYOjV9-110" value="" style="endArrow=none;html=1;rounded=0;" parent="V0cMrDeBwhReGAPYOjV9-109" edge="1">
          <mxGeometry width="50" height="50" relative="1" as="geometry">
            <mxPoint y="40" as="sourcePoint" />
            <mxPoint y="40" as="targetPoint" />
            <Array as="points">
              <mxPoint x="30" y="40" />
              <mxPoint x="40" y="40" />
              <mxPoint x="30" />
              <mxPoint x="10" />
            </Array>
          </mxGeometry>
        </mxCell>
        <mxCell id="V0cMrDeBwhReGAPYOjV9-111" value="" style="ellipse;whiteSpace=wrap;html=1;aspect=fixed;" parent="V0cMrDeBwhReGAPYOjV9-109" vertex="1">
          <mxGeometry x="10" y="10" width="20" height="20" as="geometry" />
        </mxCell>
        <mxCell id="V0cMrDeBwhReGAPYOjV9-112" value="" style="endArrow=none;html=1;rounded=0;" parent="V0cMrDeBwhReGAPYOjV9-108" edge="1">
          <mxGeometry width="50" height="50" relative="1" as="geometry">
            <mxPoint x="14" y="45" as="sourcePoint" />
            <mxPoint x="10" y="40" as="targetPoint" />
          </mxGeometry>
        </mxCell>
        <mxCell id="V0cMrDeBwhReGAPYOjV9-113" value="" style="endArrow=none;html=1;rounded=0;" parent="V0cMrDeBwhReGAPYOjV9-108" edge="1">
          <mxGeometry width="50" height="50" relative="1" as="geometry">
            <mxPoint x="24" y="45" as="sourcePoint" />
            <mxPoint x="20" y="40" as="targetPoint" />
          </mxGeometry>
        </mxCell>
        <mxCell id="V0cMrDeBwhReGAPYOjV9-114" value="" style="endArrow=none;html=1;rounded=0;" parent="V0cMrDeBwhReGAPYOjV9-108" edge="1">
          <mxGeometry width="50" height="50" relative="1" as="geometry">
            <mxPoint x="34" y="45" as="sourcePoint" />
            <mxPoint x="30" y="40" as="targetPoint" />
          </mxGeometry>
        </mxCell>
        <mxCell id="V0cMrDeBwhReGAPYOjV9-115" value="" style="endArrow=none;html=1;rounded=0;" parent="V0cMrDeBwhReGAPYOjV9-108" edge="1">
          <mxGeometry width="50" height="50" relative="1" as="geometry">
            <mxPoint x="44" y="45" as="sourcePoint" />
            <mxPoint x="40" y="40" as="targetPoint" />
          </mxGeometry>
        </mxCell>
        <mxCell id="V0cMrDeBwhReGAPYOjV9-116" value="" style="endArrow=none;html=1;rounded=0;" parent="V0cMrDeBwhReGAPYOjV9-108" edge="1">
          <mxGeometry width="50" height="50" relative="1" as="geometry">
            <mxPoint x="4" y="45" as="sourcePoint" />
            <mxPoint y="40" as="targetPoint" />
          </mxGeometry>
        </mxCell>
        <mxCell id="V0cMrDeBwhReGAPYOjV9-117" value="" style="group" parent="1" vertex="1" connectable="0">
          <mxGeometry x="1540" y="810" width="44" height="45" as="geometry" />
        </mxCell>
        <mxCell id="V0cMrDeBwhReGAPYOjV9-118" value="" style="group" parent="V0cMrDeBwhReGAPYOjV9-117" vertex="1" connectable="0">
          <mxGeometry width="40" height="40" as="geometry" />
        </mxCell>
        <mxCell id="V0cMrDeBwhReGAPYOjV9-119" value="" style="endArrow=none;html=1;rounded=0;" parent="V0cMrDeBwhReGAPYOjV9-118" edge="1">
          <mxGeometry width="50" height="50" relative="1" as="geometry">
            <mxPoint y="40" as="sourcePoint" />
            <mxPoint y="40" as="targetPoint" />
            <Array as="points">
              <mxPoint x="30" y="40" />
              <mxPoint x="40" y="40" />
              <mxPoint x="30" />
              <mxPoint x="10" />
            </Array>
          </mxGeometry>
        </mxCell>
        <mxCell id="V0cMrDeBwhReGAPYOjV9-120" value="" style="ellipse;whiteSpace=wrap;html=1;aspect=fixed;" parent="V0cMrDeBwhReGAPYOjV9-118" vertex="1">
          <mxGeometry x="10" y="10" width="20" height="20" as="geometry" />
        </mxCell>
        <mxCell id="V0cMrDeBwhReGAPYOjV9-121" value="" style="endArrow=none;html=1;rounded=0;" parent="V0cMrDeBwhReGAPYOjV9-117" edge="1">
          <mxGeometry width="50" height="50" relative="1" as="geometry">
            <mxPoint x="14" y="45" as="sourcePoint" />
            <mxPoint x="10" y="40" as="targetPoint" />
          </mxGeometry>
        </mxCell>
        <mxCell id="V0cMrDeBwhReGAPYOjV9-122" value="" style="endArrow=none;html=1;rounded=0;" parent="V0cMrDeBwhReGAPYOjV9-117" edge="1">
          <mxGeometry width="50" height="50" relative="1" as="geometry">
            <mxPoint x="24" y="45" as="sourcePoint" />
            <mxPoint x="20" y="40" as="targetPoint" />
          </mxGeometry>
        </mxCell>
        <mxCell id="V0cMrDeBwhReGAPYOjV9-123" value="" style="endArrow=none;html=1;rounded=0;" parent="V0cMrDeBwhReGAPYOjV9-117" edge="1">
          <mxGeometry width="50" height="50" relative="1" as="geometry">
            <mxPoint x="34" y="45" as="sourcePoint" />
            <mxPoint x="30" y="40" as="targetPoint" />
          </mxGeometry>
        </mxCell>
        <mxCell id="V0cMrDeBwhReGAPYOjV9-124" value="" style="endArrow=none;html=1;rounded=0;" parent="V0cMrDeBwhReGAPYOjV9-117" edge="1">
          <mxGeometry width="50" height="50" relative="1" as="geometry">
            <mxPoint x="44" y="45" as="sourcePoint" />
            <mxPoint x="40" y="40" as="targetPoint" />
          </mxGeometry>
        </mxCell>
        <mxCell id="V0cMrDeBwhReGAPYOjV9-125" value="" style="endArrow=none;html=1;rounded=0;" parent="V0cMrDeBwhReGAPYOjV9-117" edge="1">
          <mxGeometry width="50" height="50" relative="1" as="geometry">
            <mxPoint x="4" y="45" as="sourcePoint" />
            <mxPoint y="40" as="targetPoint" />
          </mxGeometry>
        </mxCell>
        <mxCell id="V0cMrDeBwhReGAPYOjV9-126" value="" style="endArrow=none;html=1;rounded=0;strokeWidth=3;" parent="1" source="V0cMrDeBwhReGAPYOjV9-111" target="V0cMrDeBwhReGAPYOjV9-107" edge="1">
          <mxGeometry width="50" height="50" relative="1" as="geometry">
            <mxPoint x="1240" y="750" as="sourcePoint" />
            <mxPoint x="1290" y="700" as="targetPoint" />
          </mxGeometry>
        </mxCell>
        <mxCell id="V0cMrDeBwhReGAPYOjV9-173" value="" style="group;rotation=-45;strokeWidth=3;" parent="1" vertex="1" connectable="0">
          <mxGeometry x="1480" y="550" width="170" height="24" as="geometry" />
        </mxCell>
        <mxCell id="V0cMrDeBwhReGAPYOjV9-167" value="" style="curved=1;endArrow=none;html=1;rounded=0;endFill=0;" parent="V0cMrDeBwhReGAPYOjV9-173" edge="1">
          <mxGeometry width="50" height="50" relative="1" as="geometry">
            <mxPoint x="90" y="24" as="sourcePoint" />
            <mxPoint x="73" y="7" as="targetPoint" />
            <Array as="points">
              <mxPoint x="69" y="45" />
              <mxPoint x="52" y="28" />
            </Array>
          </mxGeometry>
        </mxCell>
        <mxCell id="V0cMrDeBwhReGAPYOjV9-168" value="" style="endArrow=none;html=1;rounded=0;strokeWidth=3;" parent="V0cMrDeBwhReGAPYOjV9-173" target="V0cMrDeBwhReGAPYOjV9-105" edge="1">
          <mxGeometry width="50" height="50" relative="1" as="geometry">
            <mxPoint x="60" y="37" as="sourcePoint" />
            <mxPoint x="25" y="72" as="targetPoint" />
          </mxGeometry>
        </mxCell>
        <mxCell id="V0cMrDeBwhReGAPYOjV9-169" value="" style="endArrow=none;html=1;rounded=0;" parent="V0cMrDeBwhReGAPYOjV9-173" edge="1">
          <mxGeometry width="50" height="50" relative="1" as="geometry">
            <mxPoint x="90" y="24" as="sourcePoint" />
            <mxPoint x="132" y="-18" as="targetPoint" />
          </mxGeometry>
        </mxCell>
        <mxCell id="V0cMrDeBwhReGAPYOjV9-170" value="" style="endArrow=none;html=1;rounded=0;" parent="V0cMrDeBwhReGAPYOjV9-173" edge="1">
          <mxGeometry width="50" height="50" relative="1" as="geometry">
            <mxPoint x="73" y="7" as="sourcePoint" />
            <mxPoint x="115" y="-35" as="targetPoint" />
          </mxGeometry>
        </mxCell>
        <mxCell id="V0cMrDeBwhReGAPYOjV9-171" value="" style="rounded=0;whiteSpace=wrap;html=1;rotation=-45;" parent="V0cMrDeBwhReGAPYOjV9-173" vertex="1">
          <mxGeometry x="76" y="-9" width="40" height="20" as="geometry" />
        </mxCell>
        <mxCell id="V0cMrDeBwhReGAPYOjV9-172" value="" style="endArrow=none;html=1;rounded=0;exitX=1;exitY=0.5;exitDx=0;exitDy=0;strokeWidth=3;" parent="V0cMrDeBwhReGAPYOjV9-173" source="V0cMrDeBwhReGAPYOjV9-171" edge="1">
          <mxGeometry width="50" height="50" relative="1" as="geometry">
            <mxPoint x="145" y="-6" as="sourcePoint" />
            <mxPoint x="145" y="-48" as="targetPoint" />
          </mxGeometry>
        </mxCell>
        <mxCell id="V0cMrDeBwhReGAPYOjV9-174" value="" style="group;rotation=-46;" parent="1" vertex="1" connectable="0">
          <mxGeometry x="1599" y="470" width="84" height="34" as="geometry" />
        </mxCell>
        <mxCell id="V0cMrDeBwhReGAPYOjV9-175" value="" style="endArrow=none;html=1;rounded=0;" parent="V0cMrDeBwhReGAPYOjV9-174" edge="1">
          <mxGeometry width="50" height="50" relative="1" as="geometry">
            <mxPoint x="4" y="39" as="sourcePoint" />
            <mxPoint x="60" y="-19" as="targetPoint" />
          </mxGeometry>
        </mxCell>
        <mxCell id="V0cMrDeBwhReGAPYOjV9-176" value="" style="endArrow=none;html=1;rounded=0;" parent="V0cMrDeBwhReGAPYOjV9-174" edge="1">
          <mxGeometry width="50" height="50" relative="1" as="geometry">
            <mxPoint x="21" y="56" as="sourcePoint" />
            <mxPoint x="77" y="-2" as="targetPoint" />
          </mxGeometry>
        </mxCell>
        <mxCell id="V0cMrDeBwhReGAPYOjV9-177" value="" style="rounded=0;whiteSpace=wrap;html=1;rotation=-46;" parent="V0cMrDeBwhReGAPYOjV9-174" vertex="1">
          <mxGeometry x="21" y="8" width="40" height="20" as="geometry" />
        </mxCell>
        <mxCell id="V0cMrDeBwhReGAPYOjV9-178" value="" style="endArrow=none;html=1;rounded=0;" parent="V0cMrDeBwhReGAPYOjV9-174" edge="1">
          <mxGeometry width="50" height="50" relative="1" as="geometry">
            <mxPoint x="56" y="27" as="sourcePoint" />
            <mxPoint x="49" y="27" as="targetPoint" />
          </mxGeometry>
        </mxCell>
        <mxCell id="V0cMrDeBwhReGAPYOjV9-179" value="" style="endArrow=none;html=1;rounded=0;" parent="V0cMrDeBwhReGAPYOjV9-174" edge="1">
          <mxGeometry width="50" height="50" relative="1" as="geometry">
            <mxPoint x="42" y="42" as="sourcePoint" />
            <mxPoint x="35" y="41" as="targetPoint" />
          </mxGeometry>
        </mxCell>
        <mxCell id="V0cMrDeBwhReGAPYOjV9-180" value="" style="endArrow=none;html=1;rounded=0;" parent="V0cMrDeBwhReGAPYOjV9-174" edge="1">
          <mxGeometry width="50" height="50" relative="1" as="geometry">
            <mxPoint x="28" y="56" as="sourcePoint" />
            <mxPoint x="21" y="56" as="targetPoint" />
          </mxGeometry>
        </mxCell>
        <mxCell id="V0cMrDeBwhReGAPYOjV9-181" value="" style="endArrow=none;html=1;rounded=0;" parent="V0cMrDeBwhReGAPYOjV9-174" edge="1">
          <mxGeometry width="50" height="50" relative="1" as="geometry">
            <mxPoint x="83" y="-1" as="sourcePoint" />
            <mxPoint x="77" y="-2" as="targetPoint" />
          </mxGeometry>
        </mxCell>
        <mxCell id="V0cMrDeBwhReGAPYOjV9-182" value="" style="endArrow=none;html=1;rounded=0;" parent="V0cMrDeBwhReGAPYOjV9-174" edge="1">
          <mxGeometry width="50" height="50" relative="1" as="geometry">
            <mxPoint x="70" y="13" as="sourcePoint" />
            <mxPoint x="63" y="12" as="targetPoint" />
          </mxGeometry>
        </mxCell>
        <mxCell id="V0cMrDeBwhReGAPYOjV9-183" value="" style="endArrow=none;html=1;rounded=0;" parent="V0cMrDeBwhReGAPYOjV9-174" edge="1">
          <mxGeometry width="50" height="50" relative="1" as="geometry">
            <mxPoint x="56" y="27" as="sourcePoint" />
            <mxPoint x="49" y="27" as="targetPoint" />
          </mxGeometry>
        </mxCell>
        <mxCell id="V0cMrDeBwhReGAPYOjV9-184" value="" style="endArrow=none;html=1;rounded=0;" parent="V0cMrDeBwhReGAPYOjV9-174" edge="1">
          <mxGeometry width="50" height="50" relative="1" as="geometry">
            <mxPoint x="17" y="18" as="sourcePoint" />
            <mxPoint x="18" y="24" as="targetPoint" />
          </mxGeometry>
        </mxCell>
        <mxCell id="V0cMrDeBwhReGAPYOjV9-185" value="" style="endArrow=none;html=1;rounded=0;" parent="V0cMrDeBwhReGAPYOjV9-174" edge="1">
          <mxGeometry width="50" height="50" relative="1" as="geometry">
            <mxPoint x="3" y="33" as="sourcePoint" />
            <mxPoint x="4" y="39" as="targetPoint" />
          </mxGeometry>
        </mxCell>
        <mxCell id="V0cMrDeBwhReGAPYOjV9-186" value="" style="endArrow=none;html=1;rounded=0;" parent="V0cMrDeBwhReGAPYOjV9-174" edge="1">
          <mxGeometry width="50" height="50" relative="1" as="geometry">
            <mxPoint x="59" y="-25" as="sourcePoint" />
            <mxPoint x="60" y="-19" as="targetPoint" />
          </mxGeometry>
        </mxCell>
        <mxCell id="V0cMrDeBwhReGAPYOjV9-187" value="" style="endArrow=none;html=1;rounded=0;" parent="V0cMrDeBwhReGAPYOjV9-174" edge="1">
          <mxGeometry width="50" height="50" relative="1" as="geometry">
            <mxPoint x="45" y="-11" as="sourcePoint" />
            <mxPoint x="46" y="-4" as="targetPoint" />
          </mxGeometry>
        </mxCell>
        <mxCell id="V0cMrDeBwhReGAPYOjV9-188" value="" style="endArrow=none;html=1;rounded=0;" parent="V0cMrDeBwhReGAPYOjV9-174" edge="1">
          <mxGeometry width="50" height="50" relative="1" as="geometry">
            <mxPoint x="31" y="4" as="sourcePoint" />
            <mxPoint x="32" y="10" as="targetPoint" />
          </mxGeometry>
        </mxCell>
        <mxCell id="V0cMrDeBwhReGAPYOjV9-189" value="" style="endArrow=none;html=1;rounded=0;" parent="V0cMrDeBwhReGAPYOjV9-174" edge="1">
          <mxGeometry width="50" height="50" relative="1" as="geometry">
            <mxPoint x="24" y="11" as="sourcePoint" />
            <mxPoint x="25" y="17" as="targetPoint" />
          </mxGeometry>
        </mxCell>
        <mxCell id="V0cMrDeBwhReGAPYOjV9-190" value="" style="endArrow=none;html=1;rounded=0;" parent="V0cMrDeBwhReGAPYOjV9-174" edge="1">
          <mxGeometry width="50" height="50" relative="1" as="geometry">
            <mxPoint x="10" y="25" as="sourcePoint" />
            <mxPoint x="11" y="32" as="targetPoint" />
          </mxGeometry>
        </mxCell>
        <mxCell id="V0cMrDeBwhReGAPYOjV9-191" value="" style="endArrow=none;html=1;rounded=0;" parent="V0cMrDeBwhReGAPYOjV9-174" edge="1">
          <mxGeometry width="50" height="50" relative="1" as="geometry">
            <mxPoint x="52" y="-18" as="sourcePoint" />
            <mxPoint x="53" y="-11" as="targetPoint" />
          </mxGeometry>
        </mxCell>
        <mxCell id="V0cMrDeBwhReGAPYOjV9-192" value="" style="endArrow=none;html=1;rounded=0;" parent="V0cMrDeBwhReGAPYOjV9-174" edge="1">
          <mxGeometry width="50" height="50" relative="1" as="geometry">
            <mxPoint x="38" y="-3" as="sourcePoint" />
            <mxPoint x="39" y="3" as="targetPoint" />
          </mxGeometry>
        </mxCell>
        <mxCell id="V0cMrDeBwhReGAPYOjV9-193" value="" style="endArrow=none;html=1;rounded=0;" parent="V0cMrDeBwhReGAPYOjV9-174" edge="1">
          <mxGeometry width="50" height="50" relative="1" as="geometry">
            <mxPoint x="49" y="35" as="sourcePoint" />
            <mxPoint x="42" y="34" as="targetPoint" />
          </mxGeometry>
        </mxCell>
        <mxCell id="V0cMrDeBwhReGAPYOjV9-194" value="" style="endArrow=none;html=1;rounded=0;" parent="V0cMrDeBwhReGAPYOjV9-174" edge="1">
          <mxGeometry width="50" height="50" relative="1" as="geometry">
            <mxPoint x="35" y="49" as="sourcePoint" />
            <mxPoint x="28" y="48" as="targetPoint" />
          </mxGeometry>
        </mxCell>
        <mxCell id="V0cMrDeBwhReGAPYOjV9-195" value="" style="endArrow=none;html=1;rounded=0;" parent="V0cMrDeBwhReGAPYOjV9-174" edge="1">
          <mxGeometry width="50" height="50" relative="1" as="geometry">
            <mxPoint x="76" y="6" as="sourcePoint" />
            <mxPoint x="70" y="5" as="targetPoint" />
          </mxGeometry>
        </mxCell>
        <mxCell id="V0cMrDeBwhReGAPYOjV9-196" value="" style="endArrow=none;html=1;rounded=0;" parent="V0cMrDeBwhReGAPYOjV9-174" edge="1">
          <mxGeometry width="50" height="50" relative="1" as="geometry">
            <mxPoint x="63" y="20" as="sourcePoint" />
            <mxPoint x="56" y="20" as="targetPoint" />
          </mxGeometry>
        </mxCell>
        <mxCell id="V0cMrDeBwhReGAPYOjV9-197" value="" style="ellipse;whiteSpace=wrap;html=1;aspect=fixed;" parent="1" vertex="1">
          <mxGeometry x="1344" y="550" width="20" height="20" as="geometry" />
        </mxCell>
        <mxCell id="V0cMrDeBwhReGAPYOjV9-198" value="" style="endArrow=none;html=1;rounded=0;strokeWidth=3;" parent="1" source="V0cMrDeBwhReGAPYOjV9-104" target="V0cMrDeBwhReGAPYOjV9-197" edge="1">
          <mxGeometry width="50" height="50" relative="1" as="geometry">
            <mxPoint x="670" y="550" as="sourcePoint" />
            <mxPoint x="720" y="450" as="targetPoint" />
          </mxGeometry>
        </mxCell>
        <mxCell id="V0cMrDeBwhReGAPYOjV9-199" value="" style="group" parent="1" vertex="1" connectable="0">
          <mxGeometry x="1210" y="610" width="44" height="45" as="geometry" />
        </mxCell>
        <mxCell id="V0cMrDeBwhReGAPYOjV9-200" value="" style="group" parent="V0cMrDeBwhReGAPYOjV9-199" vertex="1" connectable="0">
          <mxGeometry width="40" height="40" as="geometry" />
        </mxCell>
        <mxCell id="V0cMrDeBwhReGAPYOjV9-201" value="" style="endArrow=none;html=1;rounded=0;" parent="V0cMrDeBwhReGAPYOjV9-200" edge="1">
          <mxGeometry width="50" height="50" relative="1" as="geometry">
            <mxPoint y="40" as="sourcePoint" />
            <mxPoint y="40" as="targetPoint" />
            <Array as="points">
              <mxPoint x="30" y="40" />
              <mxPoint x="40" y="40" />
              <mxPoint x="30" />
              <mxPoint x="10" />
            </Array>
          </mxGeometry>
        </mxCell>
        <mxCell id="V0cMrDeBwhReGAPYOjV9-202" value="" style="ellipse;whiteSpace=wrap;html=1;aspect=fixed;" parent="V0cMrDeBwhReGAPYOjV9-200" vertex="1">
          <mxGeometry x="10" y="10" width="20" height="20" as="geometry" />
        </mxCell>
        <mxCell id="V0cMrDeBwhReGAPYOjV9-203" value="" style="endArrow=none;html=1;rounded=0;" parent="V0cMrDeBwhReGAPYOjV9-199" edge="1">
          <mxGeometry width="50" height="50" relative="1" as="geometry">
            <mxPoint x="14" y="45" as="sourcePoint" />
            <mxPoint x="10" y="40" as="targetPoint" />
          </mxGeometry>
        </mxCell>
        <mxCell id="V0cMrDeBwhReGAPYOjV9-204" value="" style="endArrow=none;html=1;rounded=0;" parent="V0cMrDeBwhReGAPYOjV9-199" edge="1">
          <mxGeometry width="50" height="50" relative="1" as="geometry">
            <mxPoint x="24" y="45" as="sourcePoint" />
            <mxPoint x="20" y="40" as="targetPoint" />
          </mxGeometry>
        </mxCell>
        <mxCell id="V0cMrDeBwhReGAPYOjV9-205" value="" style="endArrow=none;html=1;rounded=0;" parent="V0cMrDeBwhReGAPYOjV9-199" edge="1">
          <mxGeometry width="50" height="50" relative="1" as="geometry">
            <mxPoint x="34" y="45" as="sourcePoint" />
            <mxPoint x="30" y="40" as="targetPoint" />
          </mxGeometry>
        </mxCell>
        <mxCell id="V0cMrDeBwhReGAPYOjV9-206" value="" style="endArrow=none;html=1;rounded=0;" parent="V0cMrDeBwhReGAPYOjV9-199" edge="1">
          <mxGeometry width="50" height="50" relative="1" as="geometry">
            <mxPoint x="44" y="45" as="sourcePoint" />
            <mxPoint x="40" y="40" as="targetPoint" />
          </mxGeometry>
        </mxCell>
        <mxCell id="V0cMrDeBwhReGAPYOjV9-207" value="" style="endArrow=none;html=1;rounded=0;" parent="V0cMrDeBwhReGAPYOjV9-199" edge="1">
          <mxGeometry width="50" height="50" relative="1" as="geometry">
            <mxPoint x="4" y="45" as="sourcePoint" />
            <mxPoint y="40" as="targetPoint" />
          </mxGeometry>
        </mxCell>
        <mxCell id="V0cMrDeBwhReGAPYOjV9-208" value="" style="endArrow=none;html=1;rounded=0;strokeWidth=3;" parent="1" source="V0cMrDeBwhReGAPYOjV9-202" target="V0cMrDeBwhReGAPYOjV9-197" edge="1">
          <mxGeometry width="50" height="50" relative="1" as="geometry">
            <mxPoint x="1434" y="662" as="sourcePoint" />
            <mxPoint x="1370" y="578" as="targetPoint" />
          </mxGeometry>
        </mxCell>
        <mxCell id="V0cMrDeBwhReGAPYOjV9-209" value="" style="endArrow=none;html=1;rounded=0;" parent="1" edge="1">
          <mxGeometry width="50" height="50" relative="1" as="geometry">
            <mxPoint x="1260" y="490" as="sourcePoint" />
            <mxPoint x="1260" y="490" as="targetPoint" />
          </mxGeometry>
        </mxCell>
        <mxCell id="V0cMrDeBwhReGAPYOjV9-211" value="" style="endArrow=none;html=1;rounded=0;strokeWidth=3;" parent="1" source="V0cMrDeBwhReGAPYOjV9-197" edge="1">
          <mxGeometry width="50" height="50" relative="1" as="geometry">
            <mxPoint x="1346" y="554" as="sourcePoint" />
            <mxPoint x="1268.028245776647" y="495.96215311353933" as="targetPoint" />
          </mxGeometry>
        </mxCell>
        <mxCell id="V0cMrDeBwhReGAPYOjV9-212" value="" style="endArrow=none;html=1;rounded=0;strokeWidth=3;" parent="1" source="V0cMrDeBwhReGAPYOjV9-197" edge="1">
          <mxGeometry width="50" height="50" relative="1" as="geometry">
            <mxPoint x="1356" y="564" as="sourcePoint" />
            <mxPoint x="1390" y="460" as="targetPoint" />
          </mxGeometry>
        </mxCell>
        <mxCell id="V0cMrDeBwhReGAPYOjV9-214" value="" style="group" parent="1" vertex="1" connectable="0">
          <mxGeometry x="918" y="315" width="44" height="45" as="geometry" />
        </mxCell>
        <mxCell id="V0cMrDeBwhReGAPYOjV9-215" value="" style="group" parent="V0cMrDeBwhReGAPYOjV9-214" vertex="1" connectable="0">
          <mxGeometry width="40" height="40" as="geometry" />
        </mxCell>
        <mxCell id="V0cMrDeBwhReGAPYOjV9-216" value="" style="endArrow=none;html=1;rounded=0;" parent="V0cMrDeBwhReGAPYOjV9-215" edge="1">
          <mxGeometry width="50" height="50" relative="1" as="geometry">
            <mxPoint y="40" as="sourcePoint" />
            <mxPoint y="40" as="targetPoint" />
            <Array as="points">
              <mxPoint x="30" y="40" />
              <mxPoint x="40" y="40" />
              <mxPoint x="30" />
              <mxPoint x="10" />
            </Array>
          </mxGeometry>
        </mxCell>
        <mxCell id="V0cMrDeBwhReGAPYOjV9-217" value="" style="ellipse;whiteSpace=wrap;html=1;aspect=fixed;" parent="V0cMrDeBwhReGAPYOjV9-215" vertex="1">
          <mxGeometry x="10" y="10" width="20" height="20" as="geometry" />
        </mxCell>
        <mxCell id="V0cMrDeBwhReGAPYOjV9-218" value="" style="endArrow=none;html=1;rounded=0;" parent="V0cMrDeBwhReGAPYOjV9-214" edge="1">
          <mxGeometry width="50" height="50" relative="1" as="geometry">
            <mxPoint x="14" y="45" as="sourcePoint" />
            <mxPoint x="10" y="40" as="targetPoint" />
          </mxGeometry>
        </mxCell>
        <mxCell id="V0cMrDeBwhReGAPYOjV9-219" value="" style="endArrow=none;html=1;rounded=0;" parent="V0cMrDeBwhReGAPYOjV9-214" edge="1">
          <mxGeometry width="50" height="50" relative="1" as="geometry">
            <mxPoint x="24" y="45" as="sourcePoint" />
            <mxPoint x="20" y="40" as="targetPoint" />
          </mxGeometry>
        </mxCell>
        <mxCell id="V0cMrDeBwhReGAPYOjV9-220" value="" style="endArrow=none;html=1;rounded=0;" parent="V0cMrDeBwhReGAPYOjV9-214" edge="1">
          <mxGeometry width="50" height="50" relative="1" as="geometry">
            <mxPoint x="34" y="45" as="sourcePoint" />
            <mxPoint x="30" y="40" as="targetPoint" />
          </mxGeometry>
        </mxCell>
        <mxCell id="V0cMrDeBwhReGAPYOjV9-221" value="" style="endArrow=none;html=1;rounded=0;" parent="V0cMrDeBwhReGAPYOjV9-214" edge="1">
          <mxGeometry width="50" height="50" relative="1" as="geometry">
            <mxPoint x="44" y="45" as="sourcePoint" />
            <mxPoint x="40" y="40" as="targetPoint" />
          </mxGeometry>
        </mxCell>
        <mxCell id="V0cMrDeBwhReGAPYOjV9-222" value="" style="endArrow=none;html=1;rounded=0;" parent="V0cMrDeBwhReGAPYOjV9-214" edge="1">
          <mxGeometry width="50" height="50" relative="1" as="geometry">
            <mxPoint x="4" y="45" as="sourcePoint" />
            <mxPoint y="40" as="targetPoint" />
          </mxGeometry>
        </mxCell>
        <mxCell id="V0cMrDeBwhReGAPYOjV9-223" value="" style="shape=manualInput;whiteSpace=wrap;html=1;size=140;gradientColor=none;fillColor=#C4C4C4;" parent="1" vertex="1">
          <mxGeometry x="1018" y="195" width="80" height="110" as="geometry" />
        </mxCell>
        <mxCell id="V0cMrDeBwhReGAPYOjV9-224" value="" style="ellipse;whiteSpace=wrap;html=1;aspect=fixed;" parent="1" vertex="1">
          <mxGeometry x="1008" y="295" width="20" height="20" as="geometry" />
        </mxCell>
        <mxCell id="V0cMrDeBwhReGAPYOjV9-225" value="" style="ellipse;whiteSpace=wrap;html=1;aspect=fixed;" parent="1" vertex="1">
          <mxGeometry x="1088" y="295" width="20" height="20" as="geometry" />
        </mxCell>
        <mxCell id="V0cMrDeBwhReGAPYOjV9-226" value="" style="ellipse;whiteSpace=wrap;html=1;aspect=fixed;" parent="1" vertex="1">
          <mxGeometry x="1088" y="185" width="20" height="20" as="geometry" />
        </mxCell>
        <mxCell id="V0cMrDeBwhReGAPYOjV9-227" value="" style="endArrow=none;html=1;rounded=0;strokeWidth=3;" parent="1" source="V0cMrDeBwhReGAPYOjV9-217" target="V0cMrDeBwhReGAPYOjV9-224" edge="1">
          <mxGeometry width="50" height="50" relative="1" as="geometry">
            <mxPoint x="888" y="325" as="sourcePoint" />
            <mxPoint x="938" y="225" as="targetPoint" />
          </mxGeometry>
        </mxCell>
        <mxCell id="V0cMrDeBwhReGAPYOjV9-228" value="" style="group" parent="1" vertex="1" connectable="0">
          <mxGeometry x="1188" y="355" width="44" height="45" as="geometry" />
        </mxCell>
        <mxCell id="V0cMrDeBwhReGAPYOjV9-229" value="" style="group" parent="V0cMrDeBwhReGAPYOjV9-228" vertex="1" connectable="0">
          <mxGeometry width="40" height="40" as="geometry" />
        </mxCell>
        <mxCell id="V0cMrDeBwhReGAPYOjV9-230" value="" style="endArrow=none;html=1;rounded=0;" parent="V0cMrDeBwhReGAPYOjV9-229" edge="1">
          <mxGeometry width="50" height="50" relative="1" as="geometry">
            <mxPoint y="40" as="sourcePoint" />
            <mxPoint y="40" as="targetPoint" />
            <Array as="points">
              <mxPoint x="30" y="40" />
              <mxPoint x="40" y="40" />
              <mxPoint x="30" />
              <mxPoint x="10" />
            </Array>
          </mxGeometry>
        </mxCell>
        <mxCell id="V0cMrDeBwhReGAPYOjV9-231" value="" style="ellipse;whiteSpace=wrap;html=1;aspect=fixed;" parent="V0cMrDeBwhReGAPYOjV9-229" vertex="1">
          <mxGeometry x="10" y="10" width="20" height="20" as="geometry" />
        </mxCell>
        <mxCell id="V0cMrDeBwhReGAPYOjV9-232" value="" style="endArrow=none;html=1;rounded=0;" parent="V0cMrDeBwhReGAPYOjV9-228" edge="1">
          <mxGeometry width="50" height="50" relative="1" as="geometry">
            <mxPoint x="14" y="45" as="sourcePoint" />
            <mxPoint x="10" y="40" as="targetPoint" />
          </mxGeometry>
        </mxCell>
        <mxCell id="V0cMrDeBwhReGAPYOjV9-233" value="" style="endArrow=none;html=1;rounded=0;" parent="V0cMrDeBwhReGAPYOjV9-228" edge="1">
          <mxGeometry width="50" height="50" relative="1" as="geometry">
            <mxPoint x="24" y="45" as="sourcePoint" />
            <mxPoint x="20" y="40" as="targetPoint" />
          </mxGeometry>
        </mxCell>
        <mxCell id="V0cMrDeBwhReGAPYOjV9-234" value="" style="endArrow=none;html=1;rounded=0;" parent="V0cMrDeBwhReGAPYOjV9-228" edge="1">
          <mxGeometry width="50" height="50" relative="1" as="geometry">
            <mxPoint x="34" y="45" as="sourcePoint" />
            <mxPoint x="30" y="40" as="targetPoint" />
          </mxGeometry>
        </mxCell>
        <mxCell id="V0cMrDeBwhReGAPYOjV9-235" value="" style="endArrow=none;html=1;rounded=0;" parent="V0cMrDeBwhReGAPYOjV9-228" edge="1">
          <mxGeometry width="50" height="50" relative="1" as="geometry">
            <mxPoint x="44" y="45" as="sourcePoint" />
            <mxPoint x="40" y="40" as="targetPoint" />
          </mxGeometry>
        </mxCell>
        <mxCell id="V0cMrDeBwhReGAPYOjV9-236" value="" style="endArrow=none;html=1;rounded=0;" parent="V0cMrDeBwhReGAPYOjV9-228" edge="1">
          <mxGeometry width="50" height="50" relative="1" as="geometry">
            <mxPoint x="4" y="45" as="sourcePoint" />
            <mxPoint y="40" as="targetPoint" />
          </mxGeometry>
        </mxCell>
        <mxCell id="V0cMrDeBwhReGAPYOjV9-237" value="" style="endArrow=none;html=1;rounded=0;strokeWidth=3;" parent="1" source="V0cMrDeBwhReGAPYOjV9-231" target="V0cMrDeBwhReGAPYOjV9-225" edge="1">
          <mxGeometry width="50" height="50" relative="1" as="geometry">
            <mxPoint x="957" y="342" as="sourcePoint" />
            <mxPoint x="1019" y="318" as="targetPoint" />
          </mxGeometry>
        </mxCell>
        <mxCell id="V0cMrDeBwhReGAPYOjV9-238" value="" style="endArrow=none;html=1;rounded=0;strokeWidth=3;" parent="1" target="V0cMrDeBwhReGAPYOjV9-225" edge="1">
          <mxGeometry width="50" height="50" relative="1" as="geometry">
            <mxPoint x="1198" y="265" as="sourcePoint" />
            <mxPoint x="1116" y="320" as="targetPoint" />
          </mxGeometry>
        </mxCell>
        <mxCell id="V0cMrDeBwhReGAPYOjV9-239" value="" style="endArrow=none;html=1;rounded=0;strokeWidth=3;" parent="1" target="V0cMrDeBwhReGAPYOjV9-226" edge="1">
          <mxGeometry width="50" height="50" relative="1" as="geometry">
            <mxPoint x="1198" y="225" as="sourcePoint" />
            <mxPoint x="1117" y="311" as="targetPoint" />
          </mxGeometry>
        </mxCell>
        <mxCell id="V0cMrDeBwhReGAPYOjV9-240" value="" style="group" parent="1" vertex="1" connectable="0">
          <mxGeometry x="980" y="450" width="84" height="130" as="geometry" />
        </mxCell>
        <mxCell id="V0cMrDeBwhReGAPYOjV9-241" value="" style="endArrow=none;html=1;rounded=0;" parent="V0cMrDeBwhReGAPYOjV9-240" edge="1">
          <mxGeometry width="50" height="50" relative="1" as="geometry">
            <mxPoint y="5" as="sourcePoint" />
            <mxPoint x="80" y="5" as="targetPoint" />
          </mxGeometry>
        </mxCell>
        <mxCell id="V0cMrDeBwhReGAPYOjV9-242" value="" style="endArrow=none;html=1;rounded=0;" parent="V0cMrDeBwhReGAPYOjV9-240" edge="1">
          <mxGeometry width="50" height="50" relative="1" as="geometry">
            <mxPoint y="29" as="sourcePoint" />
            <mxPoint x="80" y="29" as="targetPoint" />
          </mxGeometry>
        </mxCell>
        <mxCell id="V0cMrDeBwhReGAPYOjV9-243" value="" style="endArrow=none;html=1;rounded=0;" parent="V0cMrDeBwhReGAPYOjV9-240" edge="1">
          <mxGeometry width="50" height="50" relative="1" as="geometry">
            <mxPoint x="44" y="34" as="sourcePoint" />
            <mxPoint x="40" y="29" as="targetPoint" />
          </mxGeometry>
        </mxCell>
        <mxCell id="V0cMrDeBwhReGAPYOjV9-244" value="" style="endArrow=none;html=1;rounded=0;" parent="V0cMrDeBwhReGAPYOjV9-240" edge="1">
          <mxGeometry width="50" height="50" relative="1" as="geometry">
            <mxPoint x="24" y="34" as="sourcePoint" />
            <mxPoint x="20" y="29" as="targetPoint" />
          </mxGeometry>
        </mxCell>
        <mxCell id="V0cMrDeBwhReGAPYOjV9-245" value="" style="endArrow=none;html=1;rounded=0;" parent="V0cMrDeBwhReGAPYOjV9-240" edge="1">
          <mxGeometry width="50" height="50" relative="1" as="geometry">
            <mxPoint x="4" y="34" as="sourcePoint" />
            <mxPoint y="29" as="targetPoint" />
          </mxGeometry>
        </mxCell>
        <mxCell id="V0cMrDeBwhReGAPYOjV9-246" value="" style="endArrow=none;html=1;rounded=0;" parent="V0cMrDeBwhReGAPYOjV9-240" edge="1">
          <mxGeometry width="50" height="50" relative="1" as="geometry">
            <mxPoint x="84" y="34" as="sourcePoint" />
            <mxPoint x="80" y="29" as="targetPoint" />
          </mxGeometry>
        </mxCell>
        <mxCell id="V0cMrDeBwhReGAPYOjV9-247" value="" style="endArrow=none;html=1;rounded=0;" parent="V0cMrDeBwhReGAPYOjV9-240" edge="1">
          <mxGeometry width="50" height="50" relative="1" as="geometry">
            <mxPoint x="64" y="34" as="sourcePoint" />
            <mxPoint x="60" y="29" as="targetPoint" />
          </mxGeometry>
        </mxCell>
        <mxCell id="V0cMrDeBwhReGAPYOjV9-248" value="" style="endArrow=none;html=1;rounded=0;" parent="V0cMrDeBwhReGAPYOjV9-240" edge="1">
          <mxGeometry width="50" height="50" relative="1" as="geometry">
            <mxPoint x="44" y="34" as="sourcePoint" />
            <mxPoint x="40" y="29" as="targetPoint" />
          </mxGeometry>
        </mxCell>
        <mxCell id="V0cMrDeBwhReGAPYOjV9-249" value="" style="endArrow=none;html=1;rounded=0;" parent="V0cMrDeBwhReGAPYOjV9-240" edge="1">
          <mxGeometry width="50" height="50" relative="1" as="geometry">
            <mxPoint x="24" as="sourcePoint" />
            <mxPoint x="20" y="5" as="targetPoint" />
          </mxGeometry>
        </mxCell>
        <mxCell id="V0cMrDeBwhReGAPYOjV9-250" value="" style="endArrow=none;html=1;rounded=0;" parent="V0cMrDeBwhReGAPYOjV9-240" edge="1">
          <mxGeometry width="50" height="50" relative="1" as="geometry">
            <mxPoint x="4" as="sourcePoint" />
            <mxPoint y="5" as="targetPoint" />
          </mxGeometry>
        </mxCell>
        <mxCell id="V0cMrDeBwhReGAPYOjV9-251" value="" style="endArrow=none;html=1;rounded=0;" parent="V0cMrDeBwhReGAPYOjV9-240" edge="1">
          <mxGeometry width="50" height="50" relative="1" as="geometry">
            <mxPoint x="84" as="sourcePoint" />
            <mxPoint x="80" y="5" as="targetPoint" />
          </mxGeometry>
        </mxCell>
        <mxCell id="V0cMrDeBwhReGAPYOjV9-252" value="" style="endArrow=none;html=1;rounded=0;" parent="V0cMrDeBwhReGAPYOjV9-240" edge="1">
          <mxGeometry width="50" height="50" relative="1" as="geometry">
            <mxPoint x="64" as="sourcePoint" />
            <mxPoint x="60" y="5" as="targetPoint" />
          </mxGeometry>
        </mxCell>
        <mxCell id="V0cMrDeBwhReGAPYOjV9-253" value="" style="endArrow=none;html=1;rounded=0;" parent="V0cMrDeBwhReGAPYOjV9-240" edge="1">
          <mxGeometry width="50" height="50" relative="1" as="geometry">
            <mxPoint x="44" as="sourcePoint" />
            <mxPoint x="40" y="5" as="targetPoint" />
          </mxGeometry>
        </mxCell>
        <mxCell id="V0cMrDeBwhReGAPYOjV9-254" value="" style="endArrow=none;html=1;rounded=0;" parent="V0cMrDeBwhReGAPYOjV9-240" edge="1">
          <mxGeometry width="50" height="50" relative="1" as="geometry">
            <mxPoint x="34" as="sourcePoint" />
            <mxPoint x="30" y="5" as="targetPoint" />
          </mxGeometry>
        </mxCell>
        <mxCell id="V0cMrDeBwhReGAPYOjV9-255" value="" style="endArrow=none;html=1;rounded=0;" parent="V0cMrDeBwhReGAPYOjV9-240" edge="1">
          <mxGeometry width="50" height="50" relative="1" as="geometry">
            <mxPoint x="14" as="sourcePoint" />
            <mxPoint x="10" y="5" as="targetPoint" />
          </mxGeometry>
        </mxCell>
        <mxCell id="V0cMrDeBwhReGAPYOjV9-256" value="" style="endArrow=none;html=1;rounded=0;" parent="V0cMrDeBwhReGAPYOjV9-240" edge="1">
          <mxGeometry width="50" height="50" relative="1" as="geometry">
            <mxPoint x="74" as="sourcePoint" />
            <mxPoint x="70" y="5" as="targetPoint" />
          </mxGeometry>
        </mxCell>
        <mxCell id="V0cMrDeBwhReGAPYOjV9-257" value="" style="endArrow=none;html=1;rounded=0;" parent="V0cMrDeBwhReGAPYOjV9-240" edge="1">
          <mxGeometry width="50" height="50" relative="1" as="geometry">
            <mxPoint x="54" as="sourcePoint" />
            <mxPoint x="50" y="5" as="targetPoint" />
          </mxGeometry>
        </mxCell>
        <mxCell id="V0cMrDeBwhReGAPYOjV9-258" value="" style="endArrow=none;html=1;rounded=0;" parent="V0cMrDeBwhReGAPYOjV9-240" edge="1">
          <mxGeometry width="50" height="50" relative="1" as="geometry">
            <mxPoint x="34" y="34" as="sourcePoint" />
            <mxPoint x="30" y="29" as="targetPoint" />
          </mxGeometry>
        </mxCell>
        <mxCell id="V0cMrDeBwhReGAPYOjV9-259" value="" style="endArrow=none;html=1;rounded=0;" parent="V0cMrDeBwhReGAPYOjV9-240" edge="1">
          <mxGeometry width="50" height="50" relative="1" as="geometry">
            <mxPoint x="14" y="34" as="sourcePoint" />
            <mxPoint x="10" y="29" as="targetPoint" />
          </mxGeometry>
        </mxCell>
        <mxCell id="V0cMrDeBwhReGAPYOjV9-260" value="" style="endArrow=none;html=1;rounded=0;" parent="V0cMrDeBwhReGAPYOjV9-240" edge="1">
          <mxGeometry width="50" height="50" relative="1" as="geometry">
            <mxPoint x="74" y="34" as="sourcePoint" />
            <mxPoint x="70" y="29" as="targetPoint" />
          </mxGeometry>
        </mxCell>
        <mxCell id="V0cMrDeBwhReGAPYOjV9-261" value="" style="endArrow=none;html=1;rounded=0;" parent="V0cMrDeBwhReGAPYOjV9-240" edge="1">
          <mxGeometry width="50" height="50" relative="1" as="geometry">
            <mxPoint x="54" y="34" as="sourcePoint" />
            <mxPoint x="50" y="29" as="targetPoint" />
          </mxGeometry>
        </mxCell>
        <mxCell id="V0cMrDeBwhReGAPYOjV9-262" value="" style="ellipse;whiteSpace=wrap;html=1;aspect=fixed;fillColor=#919191;strokeWidth=0;perimeterSpacing=0;" parent="V0cMrDeBwhReGAPYOjV9-240" vertex="1">
          <mxGeometry x="29" y="5.5" width="23" height="23" as="geometry" />
        </mxCell>
        <mxCell id="V0cMrDeBwhReGAPYOjV9-263" value="" style="ellipse;whiteSpace=wrap;html=1;aspect=fixed;" parent="V0cMrDeBwhReGAPYOjV9-240" vertex="1">
          <mxGeometry x="30.5" y="7" width="20" height="20" as="geometry" />
        </mxCell>
        <mxCell id="V0cMrDeBwhReGAPYOjV9-264" value="" style="endArrow=none;html=1;rounded=0;" parent="V0cMrDeBwhReGAPYOjV9-240" source="V0cMrDeBwhReGAPYOjV9-265" edge="1">
          <mxGeometry width="50" height="50" relative="1" as="geometry">
            <mxPoint x="33" y="12" as="sourcePoint" />
            <mxPoint x="41" y="119.96000000000004" as="targetPoint" />
          </mxGeometry>
        </mxCell>
        <mxCell id="V0cMrDeBwhReGAPYOjV9-265" value="" style="ellipse;whiteSpace=wrap;html=1;aspect=fixed;" parent="V0cMrDeBwhReGAPYOjV9-240" vertex="1">
          <mxGeometry x="32" y="110" width="20" height="20" as="geometry" />
        </mxCell>
        <mxCell id="V0cMrDeBwhReGAPYOjV9-266" value="" style="endArrow=none;html=1;rounded=0;strokeWidth=3;" parent="V0cMrDeBwhReGAPYOjV9-240" source="V0cMrDeBwhReGAPYOjV9-263" target="V0cMrDeBwhReGAPYOjV9-265" edge="1">
          <mxGeometry width="50" height="50" relative="1" as="geometry">
            <mxPoint x="1181" y="948" as="sourcePoint" />
            <mxPoint x="1181" y="1039.96" as="targetPoint" />
          </mxGeometry>
        </mxCell>
        <mxCell id="V0cMrDeBwhReGAPYOjV9-267" value="" style="shape=trapezoid;perimeter=trapezoidPerimeter;whiteSpace=wrap;html=1;fixedSize=1;fillColor=#C4C4C4;size=40;" parent="1" vertex="1">
          <mxGeometry x="942" y="570" width="120" height="60" as="geometry" />
        </mxCell>
        <mxCell id="V0cMrDeBwhReGAPYOjV9-268" value="" style="ellipse;whiteSpace=wrap;html=1;aspect=fixed;" parent="1" vertex="1">
          <mxGeometry x="972" y="560" width="20" height="20" as="geometry" />
        </mxCell>
        <mxCell id="V0cMrDeBwhReGAPYOjV9-269" value="" style="ellipse;whiteSpace=wrap;html=1;aspect=fixed;" parent="1" vertex="1">
          <mxGeometry x="1012" y="560" width="20" height="20" as="geometry" />
        </mxCell>
        <mxCell id="V0cMrDeBwhReGAPYOjV9-270" value="" style="ellipse;whiteSpace=wrap;html=1;aspect=fixed;" parent="1" vertex="1">
          <mxGeometry x="1052" y="620" width="20" height="20" as="geometry" />
        </mxCell>
        <mxCell id="V0cMrDeBwhReGAPYOjV9-271" value="" style="ellipse;whiteSpace=wrap;html=1;aspect=fixed;" parent="1" vertex="1">
          <mxGeometry x="932" y="620" width="20" height="20" as="geometry" />
        </mxCell>
        <mxCell id="V0cMrDeBwhReGAPYOjV9-272" value="" style="endArrow=none;html=1;rounded=0;strokeWidth=3;" parent="1" target="V0cMrDeBwhReGAPYOjV9-268" edge="1">
          <mxGeometry width="50" height="50" relative="1" as="geometry">
            <mxPoint x="930" y="520" as="sourcePoint" />
            <mxPoint x="933" y="556" as="targetPoint" />
          </mxGeometry>
        </mxCell>
        <mxCell id="V0cMrDeBwhReGAPYOjV9-273" value="" style="shape=manualInput;whiteSpace=wrap;html=1;size=140;gradientColor=none;fillColor=#C4C4C4;" parent="1" vertex="1">
          <mxGeometry x="982" y="630" width="80" height="110" as="geometry" />
        </mxCell>
        <mxCell id="V0cMrDeBwhReGAPYOjV9-274" value="" style="ellipse;whiteSpace=wrap;html=1;aspect=fixed;" parent="1" vertex="1">
          <mxGeometry x="972" y="730" width="20" height="20" as="geometry" />
        </mxCell>
        <mxCell id="V0cMrDeBwhReGAPYOjV9-275" value="" style="ellipse;whiteSpace=wrap;html=1;aspect=fixed;" parent="1" vertex="1">
          <mxGeometry x="1052" y="730" width="20" height="20" as="geometry" />
        </mxCell>
        <mxCell id="V0cMrDeBwhReGAPYOjV9-276" value="" style="ellipse;whiteSpace=wrap;html=1;aspect=fixed;" parent="1" vertex="1">
          <mxGeometry x="1052" y="620" width="20" height="20" as="geometry" />
        </mxCell>
        <mxCell id="V0cMrDeBwhReGAPYOjV9-278" value="" style="endArrow=none;html=1;rounded=0;strokeWidth=3;" parent="1" source="V0cMrDeBwhReGAPYOjV9-276" edge="1">
          <mxGeometry width="50" height="50" relative="1" as="geometry">
            <mxPoint x="1102" y="629" as="sourcePoint" />
            <mxPoint x="1180" y="700" as="targetPoint" />
          </mxGeometry>
        </mxCell>
        <mxCell id="V0cMrDeBwhReGAPYOjV9-279" value="" style="shape=manualInput;whiteSpace=wrap;html=1;size=140;gradientColor=none;fillColor=#C4C4C4;" parent="1" vertex="1">
          <mxGeometry x="1374" y="195.65999999999997" width="80" height="110" as="geometry" />
        </mxCell>
        <mxCell id="V0cMrDeBwhReGAPYOjV9-280" value="" style="ellipse;whiteSpace=wrap;html=1;aspect=fixed;" parent="1" vertex="1">
          <mxGeometry x="1364" y="295.65999999999997" width="20" height="20" as="geometry" />
        </mxCell>
        <mxCell id="V0cMrDeBwhReGAPYOjV9-281" value="" style="ellipse;whiteSpace=wrap;html=1;aspect=fixed;" parent="1" vertex="1">
          <mxGeometry x="1444" y="295.65999999999997" width="20" height="20" as="geometry" />
        </mxCell>
        <mxCell id="V0cMrDeBwhReGAPYOjV9-282" value="" style="ellipse;whiteSpace=wrap;html=1;aspect=fixed;" parent="1" vertex="1">
          <mxGeometry x="1444" y="185.65999999999997" width="20" height="20" as="geometry" />
        </mxCell>
        <mxCell id="V0cMrDeBwhReGAPYOjV9-283" value="" style="group" parent="1" vertex="1" connectable="0">
          <mxGeometry x="1324" y="345.65999999999997" width="44" height="45" as="geometry" />
        </mxCell>
        <mxCell id="V0cMrDeBwhReGAPYOjV9-284" value="" style="group" parent="V0cMrDeBwhReGAPYOjV9-283" vertex="1" connectable="0">
          <mxGeometry width="40" height="40" as="geometry" />
        </mxCell>
        <mxCell id="V0cMrDeBwhReGAPYOjV9-285" value="" style="endArrow=none;html=1;rounded=0;" parent="V0cMrDeBwhReGAPYOjV9-284" edge="1">
          <mxGeometry width="50" height="50" relative="1" as="geometry">
            <mxPoint y="40" as="sourcePoint" />
            <mxPoint y="40" as="targetPoint" />
            <Array as="points">
              <mxPoint x="30" y="40" />
              <mxPoint x="40" y="40" />
              <mxPoint x="30" />
              <mxPoint x="10" />
            </Array>
          </mxGeometry>
        </mxCell>
        <mxCell id="V0cMrDeBwhReGAPYOjV9-286" value="" style="ellipse;whiteSpace=wrap;html=1;aspect=fixed;" parent="V0cMrDeBwhReGAPYOjV9-284" vertex="1">
          <mxGeometry x="10" y="10" width="20" height="20" as="geometry" />
        </mxCell>
        <mxCell id="V0cMrDeBwhReGAPYOjV9-287" value="" style="endArrow=none;html=1;rounded=0;" parent="V0cMrDeBwhReGAPYOjV9-283" edge="1">
          <mxGeometry width="50" height="50" relative="1" as="geometry">
            <mxPoint x="14" y="45" as="sourcePoint" />
            <mxPoint x="10" y="40" as="targetPoint" />
          </mxGeometry>
        </mxCell>
        <mxCell id="V0cMrDeBwhReGAPYOjV9-288" value="" style="endArrow=none;html=1;rounded=0;" parent="V0cMrDeBwhReGAPYOjV9-283" edge="1">
          <mxGeometry width="50" height="50" relative="1" as="geometry">
            <mxPoint x="24" y="45" as="sourcePoint" />
            <mxPoint x="20" y="40" as="targetPoint" />
          </mxGeometry>
        </mxCell>
        <mxCell id="V0cMrDeBwhReGAPYOjV9-289" value="" style="endArrow=none;html=1;rounded=0;" parent="V0cMrDeBwhReGAPYOjV9-283" edge="1">
          <mxGeometry width="50" height="50" relative="1" as="geometry">
            <mxPoint x="34" y="45" as="sourcePoint" />
            <mxPoint x="30" y="40" as="targetPoint" />
          </mxGeometry>
        </mxCell>
        <mxCell id="V0cMrDeBwhReGAPYOjV9-290" value="" style="endArrow=none;html=1;rounded=0;" parent="V0cMrDeBwhReGAPYOjV9-283" edge="1">
          <mxGeometry width="50" height="50" relative="1" as="geometry">
            <mxPoint x="44" y="45" as="sourcePoint" />
            <mxPoint x="40" y="40" as="targetPoint" />
          </mxGeometry>
        </mxCell>
        <mxCell id="V0cMrDeBwhReGAPYOjV9-291" value="" style="endArrow=none;html=1;rounded=0;" parent="V0cMrDeBwhReGAPYOjV9-283" edge="1">
          <mxGeometry width="50" height="50" relative="1" as="geometry">
            <mxPoint x="4" y="45" as="sourcePoint" />
            <mxPoint y="40" as="targetPoint" />
          </mxGeometry>
        </mxCell>
        <mxCell id="V0cMrDeBwhReGAPYOjV9-299" value="" style="group" parent="1" vertex="1" connectable="0">
          <mxGeometry x="1514" y="288.65999999999997" width="84" height="34" as="geometry" />
        </mxCell>
        <mxCell id="V0cMrDeBwhReGAPYOjV9-300" value="" style="endArrow=none;html=1;rounded=0;" parent="V0cMrDeBwhReGAPYOjV9-299" edge="1">
          <mxGeometry width="50" height="50" relative="1" as="geometry">
            <mxPoint y="5" as="sourcePoint" />
            <mxPoint x="80" y="5" as="targetPoint" />
          </mxGeometry>
        </mxCell>
        <mxCell id="V0cMrDeBwhReGAPYOjV9-301" value="" style="endArrow=none;html=1;rounded=0;" parent="V0cMrDeBwhReGAPYOjV9-299" edge="1">
          <mxGeometry width="50" height="50" relative="1" as="geometry">
            <mxPoint y="29" as="sourcePoint" />
            <mxPoint x="80" y="29" as="targetPoint" />
          </mxGeometry>
        </mxCell>
        <mxCell id="V0cMrDeBwhReGAPYOjV9-302" value="" style="rounded=0;whiteSpace=wrap;html=1;" parent="V0cMrDeBwhReGAPYOjV9-299" vertex="1">
          <mxGeometry x="20" y="7" width="40" height="20" as="geometry" />
        </mxCell>
        <mxCell id="V0cMrDeBwhReGAPYOjV9-303" value="" style="endArrow=none;html=1;rounded=0;" parent="V0cMrDeBwhReGAPYOjV9-299" edge="1">
          <mxGeometry width="50" height="50" relative="1" as="geometry">
            <mxPoint x="44" y="34" as="sourcePoint" />
            <mxPoint x="40" y="29" as="targetPoint" />
          </mxGeometry>
        </mxCell>
        <mxCell id="V0cMrDeBwhReGAPYOjV9-304" value="" style="endArrow=none;html=1;rounded=0;" parent="V0cMrDeBwhReGAPYOjV9-299" edge="1">
          <mxGeometry width="50" height="50" relative="1" as="geometry">
            <mxPoint x="24" y="34" as="sourcePoint" />
            <mxPoint x="20" y="29" as="targetPoint" />
          </mxGeometry>
        </mxCell>
        <mxCell id="V0cMrDeBwhReGAPYOjV9-305" value="" style="endArrow=none;html=1;rounded=0;" parent="V0cMrDeBwhReGAPYOjV9-299" edge="1">
          <mxGeometry width="50" height="50" relative="1" as="geometry">
            <mxPoint x="4" y="34" as="sourcePoint" />
            <mxPoint y="29" as="targetPoint" />
          </mxGeometry>
        </mxCell>
        <mxCell id="V0cMrDeBwhReGAPYOjV9-306" value="" style="endArrow=none;html=1;rounded=0;" parent="V0cMrDeBwhReGAPYOjV9-299" edge="1">
          <mxGeometry width="50" height="50" relative="1" as="geometry">
            <mxPoint x="84" y="34" as="sourcePoint" />
            <mxPoint x="80" y="29" as="targetPoint" />
          </mxGeometry>
        </mxCell>
        <mxCell id="V0cMrDeBwhReGAPYOjV9-307" value="" style="endArrow=none;html=1;rounded=0;" parent="V0cMrDeBwhReGAPYOjV9-299" edge="1">
          <mxGeometry width="50" height="50" relative="1" as="geometry">
            <mxPoint x="64" y="34" as="sourcePoint" />
            <mxPoint x="60" y="29" as="targetPoint" />
          </mxGeometry>
        </mxCell>
        <mxCell id="V0cMrDeBwhReGAPYOjV9-308" value="" style="endArrow=none;html=1;rounded=0;" parent="V0cMrDeBwhReGAPYOjV9-299" edge="1">
          <mxGeometry width="50" height="50" relative="1" as="geometry">
            <mxPoint x="44" y="34" as="sourcePoint" />
            <mxPoint x="40" y="29" as="targetPoint" />
          </mxGeometry>
        </mxCell>
        <mxCell id="V0cMrDeBwhReGAPYOjV9-309" value="" style="endArrow=none;html=1;rounded=0;" parent="V0cMrDeBwhReGAPYOjV9-299" edge="1">
          <mxGeometry width="50" height="50" relative="1" as="geometry">
            <mxPoint x="24" as="sourcePoint" />
            <mxPoint x="20" y="5" as="targetPoint" />
          </mxGeometry>
        </mxCell>
        <mxCell id="V0cMrDeBwhReGAPYOjV9-310" value="" style="endArrow=none;html=1;rounded=0;" parent="V0cMrDeBwhReGAPYOjV9-299" edge="1">
          <mxGeometry width="50" height="50" relative="1" as="geometry">
            <mxPoint x="4" as="sourcePoint" />
            <mxPoint y="5" as="targetPoint" />
          </mxGeometry>
        </mxCell>
        <mxCell id="V0cMrDeBwhReGAPYOjV9-311" value="" style="endArrow=none;html=1;rounded=0;" parent="V0cMrDeBwhReGAPYOjV9-299" edge="1">
          <mxGeometry width="50" height="50" relative="1" as="geometry">
            <mxPoint x="84" as="sourcePoint" />
            <mxPoint x="80" y="5" as="targetPoint" />
          </mxGeometry>
        </mxCell>
        <mxCell id="V0cMrDeBwhReGAPYOjV9-312" value="" style="endArrow=none;html=1;rounded=0;" parent="V0cMrDeBwhReGAPYOjV9-299" edge="1">
          <mxGeometry width="50" height="50" relative="1" as="geometry">
            <mxPoint x="64" as="sourcePoint" />
            <mxPoint x="60" y="5" as="targetPoint" />
          </mxGeometry>
        </mxCell>
        <mxCell id="V0cMrDeBwhReGAPYOjV9-313" value="" style="endArrow=none;html=1;rounded=0;" parent="V0cMrDeBwhReGAPYOjV9-299" edge="1">
          <mxGeometry width="50" height="50" relative="1" as="geometry">
            <mxPoint x="44" as="sourcePoint" />
            <mxPoint x="40" y="5" as="targetPoint" />
          </mxGeometry>
        </mxCell>
        <mxCell id="V0cMrDeBwhReGAPYOjV9-314" value="" style="endArrow=none;html=1;rounded=0;" parent="V0cMrDeBwhReGAPYOjV9-299" edge="1">
          <mxGeometry width="50" height="50" relative="1" as="geometry">
            <mxPoint x="34" as="sourcePoint" />
            <mxPoint x="30" y="5" as="targetPoint" />
          </mxGeometry>
        </mxCell>
        <mxCell id="V0cMrDeBwhReGAPYOjV9-315" value="" style="endArrow=none;html=1;rounded=0;" parent="V0cMrDeBwhReGAPYOjV9-299" edge="1">
          <mxGeometry width="50" height="50" relative="1" as="geometry">
            <mxPoint x="14" as="sourcePoint" />
            <mxPoint x="10" y="5" as="targetPoint" />
          </mxGeometry>
        </mxCell>
        <mxCell id="V0cMrDeBwhReGAPYOjV9-316" value="" style="endArrow=none;html=1;rounded=0;" parent="V0cMrDeBwhReGAPYOjV9-299" edge="1">
          <mxGeometry width="50" height="50" relative="1" as="geometry">
            <mxPoint x="74" as="sourcePoint" />
            <mxPoint x="70" y="5" as="targetPoint" />
          </mxGeometry>
        </mxCell>
        <mxCell id="V0cMrDeBwhReGAPYOjV9-317" value="" style="endArrow=none;html=1;rounded=0;" parent="V0cMrDeBwhReGAPYOjV9-299" edge="1">
          <mxGeometry width="50" height="50" relative="1" as="geometry">
            <mxPoint x="54" as="sourcePoint" />
            <mxPoint x="50" y="5" as="targetPoint" />
          </mxGeometry>
        </mxCell>
        <mxCell id="V0cMrDeBwhReGAPYOjV9-318" value="" style="endArrow=none;html=1;rounded=0;" parent="V0cMrDeBwhReGAPYOjV9-299" edge="1">
          <mxGeometry width="50" height="50" relative="1" as="geometry">
            <mxPoint x="34" y="34" as="sourcePoint" />
            <mxPoint x="30" y="29" as="targetPoint" />
          </mxGeometry>
        </mxCell>
        <mxCell id="V0cMrDeBwhReGAPYOjV9-319" value="" style="endArrow=none;html=1;rounded=0;" parent="V0cMrDeBwhReGAPYOjV9-299" edge="1">
          <mxGeometry width="50" height="50" relative="1" as="geometry">
            <mxPoint x="14" y="34" as="sourcePoint" />
            <mxPoint x="10" y="29" as="targetPoint" />
          </mxGeometry>
        </mxCell>
        <mxCell id="V0cMrDeBwhReGAPYOjV9-320" value="" style="endArrow=none;html=1;rounded=0;" parent="V0cMrDeBwhReGAPYOjV9-299" edge="1">
          <mxGeometry width="50" height="50" relative="1" as="geometry">
            <mxPoint x="74" y="34" as="sourcePoint" />
            <mxPoint x="70" y="29" as="targetPoint" />
          </mxGeometry>
        </mxCell>
        <mxCell id="V0cMrDeBwhReGAPYOjV9-321" value="" style="endArrow=none;html=1;rounded=0;" parent="V0cMrDeBwhReGAPYOjV9-299" edge="1">
          <mxGeometry width="50" height="50" relative="1" as="geometry">
            <mxPoint x="54" y="34" as="sourcePoint" />
            <mxPoint x="50" y="29" as="targetPoint" />
          </mxGeometry>
        </mxCell>
        <mxCell id="V0cMrDeBwhReGAPYOjV9-322" value="" style="endArrow=none;html=1;rounded=0;strokeWidth=3;" parent="1" source="V0cMrDeBwhReGAPYOjV9-281" target="V0cMrDeBwhReGAPYOjV9-302" edge="1">
          <mxGeometry width="50" height="50" relative="1" as="geometry">
            <mxPoint x="1384" y="315.65999999999997" as="sourcePoint" />
            <mxPoint x="1358" y="366.65999999999997" as="targetPoint" />
          </mxGeometry>
        </mxCell>
        <mxCell id="uJDowORFvYO5UGkv2Mf6-14" value="a." style="text;html=1;align=center;verticalAlign=middle;whiteSpace=wrap;rounded=0;fontFamily=Georgia;fontSize=29;" parent="1" vertex="1">
          <mxGeometry x="927" y="203" width="60" height="30" as="geometry" />
        </mxCell>
        <mxCell id="uJDowORFvYO5UGkv2Mf6-15" value="b." style="text;html=1;align=center;verticalAlign=middle;whiteSpace=wrap;rounded=0;fontFamily=Georgia;fontSize=29;" parent="1" vertex="1">
          <mxGeometry x="1324" y="203" width="60" height="30" as="geometry" />
        </mxCell>
        <mxCell id="uJDowORFvYO5UGkv2Mf6-16" value="c." style="text;html=1;align=center;verticalAlign=middle;whiteSpace=wrap;rounded=0;fontFamily=Georgia;fontSize=29;" parent="1" vertex="1">
          <mxGeometry x="927" y="454" width="60" height="30" as="geometry" />
        </mxCell>
        <mxCell id="uJDowORFvYO5UGkv2Mf6-17" value="d." style="text;html=1;align=center;verticalAlign=middle;whiteSpace=wrap;rounded=0;fontFamily=Georgia;fontSize=29;" parent="1" vertex="1">
          <mxGeometry x="1327" y="454" width="60" height="30" as="geometry" />
        </mxCell>
        <mxCell id="U_zzFxPC7SBMpID13DP9-1" value="" style="group" parent="1" vertex="1" connectable="0">
          <mxGeometry x="200" y="800" width="80" height="45" as="geometry" />
        </mxCell>
        <mxCell id="U_zzFxPC7SBMpID13DP9-2" value="" style="group" parent="U_zzFxPC7SBMpID13DP9-1" vertex="1" connectable="0">
          <mxGeometry width="80" height="40" as="geometry" />
        </mxCell>
        <mxCell id="U_zzFxPC7SBMpID13DP9-3" value="" style="endArrow=none;html=1;rounded=0;" parent="U_zzFxPC7SBMpID13DP9-2" edge="1">
          <mxGeometry width="50" height="50" relative="1" as="geometry">
            <mxPoint y="40" as="sourcePoint" />
            <mxPoint y="40" as="targetPoint" />
            <Array as="points">
              <mxPoint x="30" y="40" />
              <mxPoint x="40" y="40" />
              <mxPoint x="30" />
              <mxPoint x="10" />
            </Array>
          </mxGeometry>
        </mxCell>
        <mxCell id="U_zzFxPC7SBMpID13DP9-4" value="" style="ellipse;whiteSpace=wrap;html=1;aspect=fixed;" parent="U_zzFxPC7SBMpID13DP9-2" vertex="1">
          <mxGeometry x="10" y="10" width="20" height="20" as="geometry" />
        </mxCell>
        <mxCell id="U_zzFxPC7SBMpID13DP9-23" value="" style="ellipse;whiteSpace=wrap;html=1;aspect=fixed;" parent="U_zzFxPC7SBMpID13DP9-2" vertex="1">
          <mxGeometry x="10" y="10" width="20" height="20" as="geometry" />
        </mxCell>
        <mxCell id="U_zzFxPC7SBMpID13DP9-5" value="" style="endArrow=none;html=1;rounded=0;" parent="U_zzFxPC7SBMpID13DP9-1" edge="1">
          <mxGeometry width="50" height="50" relative="1" as="geometry">
            <mxPoint x="14" y="45" as="sourcePoint" />
            <mxPoint x="10" y="40" as="targetPoint" />
          </mxGeometry>
        </mxCell>
        <mxCell id="U_zzFxPC7SBMpID13DP9-6" value="" style="endArrow=none;html=1;rounded=0;" parent="U_zzFxPC7SBMpID13DP9-1" edge="1">
          <mxGeometry width="50" height="50" relative="1" as="geometry">
            <mxPoint x="24" y="45" as="sourcePoint" />
            <mxPoint x="20" y="40" as="targetPoint" />
          </mxGeometry>
        </mxCell>
        <mxCell id="U_zzFxPC7SBMpID13DP9-7" value="" style="endArrow=none;html=1;rounded=0;" parent="U_zzFxPC7SBMpID13DP9-1" edge="1">
          <mxGeometry width="50" height="50" relative="1" as="geometry">
            <mxPoint x="34" y="45" as="sourcePoint" />
            <mxPoint x="30" y="40" as="targetPoint" />
          </mxGeometry>
        </mxCell>
        <mxCell id="U_zzFxPC7SBMpID13DP9-8" value="" style="endArrow=none;html=1;rounded=0;" parent="U_zzFxPC7SBMpID13DP9-1" edge="1">
          <mxGeometry width="50" height="50" relative="1" as="geometry">
            <mxPoint x="44" y="45" as="sourcePoint" />
            <mxPoint x="40" y="40" as="targetPoint" />
          </mxGeometry>
        </mxCell>
        <mxCell id="U_zzFxPC7SBMpID13DP9-9" value="" style="endArrow=none;html=1;rounded=0;" parent="U_zzFxPC7SBMpID13DP9-1" edge="1">
          <mxGeometry width="50" height="50" relative="1" as="geometry">
            <mxPoint x="4" y="45" as="sourcePoint" />
            <mxPoint y="40" as="targetPoint" />
          </mxGeometry>
        </mxCell>
        <mxCell id="U_zzFxPC7SBMpID13DP9-10" value="" style="group" parent="1" vertex="1" connectable="0">
          <mxGeometry x="400" y="800" width="44" height="45" as="geometry" />
        </mxCell>
        <mxCell id="U_zzFxPC7SBMpID13DP9-11" value="" style="group" parent="U_zzFxPC7SBMpID13DP9-10" vertex="1" connectable="0">
          <mxGeometry width="40" height="40" as="geometry" />
        </mxCell>
        <mxCell id="U_zzFxPC7SBMpID13DP9-12" value="" style="endArrow=none;html=1;rounded=0;" parent="U_zzFxPC7SBMpID13DP9-11" edge="1">
          <mxGeometry width="50" height="50" relative="1" as="geometry">
            <mxPoint y="40" as="sourcePoint" />
            <mxPoint y="40" as="targetPoint" />
            <Array as="points">
              <mxPoint x="30" y="40" />
              <mxPoint x="40" y="40" />
              <mxPoint x="30" />
              <mxPoint x="10" />
            </Array>
          </mxGeometry>
        </mxCell>
        <mxCell id="U_zzFxPC7SBMpID13DP9-13" value="" style="ellipse;whiteSpace=wrap;html=1;aspect=fixed;" parent="U_zzFxPC7SBMpID13DP9-11" vertex="1">
          <mxGeometry x="10" y="10" width="20" height="20" as="geometry" />
        </mxCell>
        <mxCell id="U_zzFxPC7SBMpID13DP9-24" value="" style="ellipse;whiteSpace=wrap;html=1;aspect=fixed;" parent="U_zzFxPC7SBMpID13DP9-11" vertex="1">
          <mxGeometry x="10" y="10" width="20" height="20" as="geometry" />
        </mxCell>
        <mxCell id="U_zzFxPC7SBMpID13DP9-14" value="" style="endArrow=none;html=1;rounded=0;" parent="U_zzFxPC7SBMpID13DP9-10" edge="1">
          <mxGeometry width="50" height="50" relative="1" as="geometry">
            <mxPoint x="14" y="45" as="sourcePoint" />
            <mxPoint x="10" y="40" as="targetPoint" />
          </mxGeometry>
        </mxCell>
        <mxCell id="U_zzFxPC7SBMpID13DP9-15" value="" style="endArrow=none;html=1;rounded=0;" parent="U_zzFxPC7SBMpID13DP9-10" edge="1">
          <mxGeometry width="50" height="50" relative="1" as="geometry">
            <mxPoint x="24" y="45" as="sourcePoint" />
            <mxPoint x="20" y="40" as="targetPoint" />
          </mxGeometry>
        </mxCell>
        <mxCell id="U_zzFxPC7SBMpID13DP9-16" value="" style="endArrow=none;html=1;rounded=0;" parent="U_zzFxPC7SBMpID13DP9-10" edge="1">
          <mxGeometry width="50" height="50" relative="1" as="geometry">
            <mxPoint x="34" y="45" as="sourcePoint" />
            <mxPoint x="30" y="40" as="targetPoint" />
          </mxGeometry>
        </mxCell>
        <mxCell id="U_zzFxPC7SBMpID13DP9-17" value="" style="endArrow=none;html=1;rounded=0;" parent="U_zzFxPC7SBMpID13DP9-10" edge="1">
          <mxGeometry width="50" height="50" relative="1" as="geometry">
            <mxPoint x="44" y="45" as="sourcePoint" />
            <mxPoint x="40" y="40" as="targetPoint" />
          </mxGeometry>
        </mxCell>
        <mxCell id="U_zzFxPC7SBMpID13DP9-18" value="" style="endArrow=none;html=1;rounded=0;" parent="U_zzFxPC7SBMpID13DP9-10" edge="1">
          <mxGeometry width="50" height="50" relative="1" as="geometry">
            <mxPoint x="4" y="45" as="sourcePoint" />
            <mxPoint y="40" as="targetPoint" />
          </mxGeometry>
        </mxCell>
        <mxCell id="U_zzFxPC7SBMpID13DP9-19" value="" style="endArrow=none;html=1;rounded=0;strokeWidth=3;" parent="1" source="U_zzFxPC7SBMpID13DP9-20" edge="1">
          <mxGeometry width="50" height="50" relative="1" as="geometry">
            <mxPoint x="220" y="811" as="sourcePoint" />
            <mxPoint x="270" y="711" as="targetPoint" />
          </mxGeometry>
        </mxCell>
        <mxCell id="U_zzFxPC7SBMpID13DP9-20" value="" style="ellipse;whiteSpace=wrap;html=1;aspect=fixed;" parent="1" vertex="1">
          <mxGeometry x="210" y="810" width="20" height="20" as="geometry" />
        </mxCell>
        <mxCell id="U_zzFxPC7SBMpID13DP9-21" value="" style="ellipse;whiteSpace=wrap;html=1;aspect=fixed;" parent="1" vertex="1">
          <mxGeometry x="260" y="701" width="20" height="20" as="geometry" />
        </mxCell>
        <mxCell id="U_zzFxPC7SBMpID13DP9-22" value="" style="endArrow=none;html=1;rounded=0;strokeWidth=3;" parent="1" source="U_zzFxPC7SBMpID13DP9-23" target="U_zzFxPC7SBMpID13DP9-24" edge="1">
          <mxGeometry width="50" height="50" relative="1" as="geometry">
            <mxPoint x="220" y="811" as="sourcePoint" />
            <mxPoint x="270" y="711" as="targetPoint" />
          </mxGeometry>
        </mxCell>
        <mxCell id="U_zzFxPC7SBMpID13DP9-25" value="" style="endArrow=none;html=1;rounded=0;strokeWidth=3;" parent="1" source="U_zzFxPC7SBMpID13DP9-26" target="U_zzFxPC7SBMpID13DP9-27" edge="1">
          <mxGeometry width="50" height="50" relative="1" as="geometry">
            <mxPoint x="420" y="811" as="sourcePoint" />
            <mxPoint x="470" y="711" as="targetPoint" />
          </mxGeometry>
        </mxCell>
        <mxCell id="U_zzFxPC7SBMpID13DP9-26" value="" style="ellipse;whiteSpace=wrap;html=1;aspect=fixed;" parent="1" vertex="1">
          <mxGeometry x="410" y="810" width="20" height="20" as="geometry" />
        </mxCell>
        <mxCell id="U_zzFxPC7SBMpID13DP9-27" value="" style="ellipse;whiteSpace=wrap;html=1;aspect=fixed;" parent="1" vertex="1">
          <mxGeometry x="390" y="660" width="20" height="20" as="geometry" />
        </mxCell>
        <mxCell id="U_zzFxPC7SBMpID13DP9-28" value="" style="endArrow=none;html=1;rounded=0;strokeWidth=3;" parent="1" source="U_zzFxPC7SBMpID13DP9-21" target="U_zzFxPC7SBMpID13DP9-27" edge="1">
          <mxGeometry width="50" height="50" relative="1" as="geometry">
            <mxPoint x="429" y="820" as="sourcePoint" />
            <mxPoint x="411" y="690" as="targetPoint" />
          </mxGeometry>
        </mxCell>
        <mxCell id="U_zzFxPC7SBMpID13DP9-29" value="5" style="text;html=1;align=center;verticalAlign=middle;whiteSpace=wrap;rounded=0;fontSize=24;fontFamily=Helvetica;" parent="1" vertex="1">
          <mxGeometry x="290" y="825" width="60" height="30" as="geometry" />
        </mxCell>
        <mxCell id="U_zzFxPC7SBMpID13DP9-30" value="4,5" style="text;html=1;align=center;verticalAlign=middle;whiteSpace=wrap;rounded=0;fontSize=24;fontFamily=Helvetica;" parent="1" vertex="1">
          <mxGeometry x="410" y="725" width="60" height="30" as="geometry" />
        </mxCell>
        <mxCell id="U_zzFxPC7SBMpID13DP9-31" value="3" style="text;html=1;align=center;verticalAlign=middle;whiteSpace=wrap;rounded=0;fontSize=24;fontFamily=Helvetica;" parent="1" vertex="1">
          <mxGeometry x="300" y="655" width="60" height="30" as="geometry" />
        </mxCell>
        <mxCell id="U_zzFxPC7SBMpID13DP9-32" value="2" style="text;html=1;align=center;verticalAlign=middle;whiteSpace=wrap;rounded=0;fontSize=24;fontFamily=Helvetica;" parent="1" vertex="1">
          <mxGeometry x="200" y="730" width="60" height="30" as="geometry" />
        </mxCell>
        <mxCell id="U_zzFxPC7SBMpID13DP9-138" value="" style="shape=or;whiteSpace=wrap;html=1;rotation=-90;fillColor=#999999;" parent="1" vertex="1">
          <mxGeometry x="971" y="899" width="60" height="80" as="geometry" />
        </mxCell>
        <mxCell id="U_zzFxPC7SBMpID13DP9-140" value="" style="group;rotation=90;" parent="1" vertex="1" connectable="0">
          <mxGeometry x="960" y="1049" width="100" height="34" as="geometry" />
        </mxCell>
        <mxCell id="U_zzFxPC7SBMpID13DP9-141" value="" style="endArrow=none;html=1;rounded=0;" parent="U_zzFxPC7SBMpID13DP9-140" edge="1">
          <mxGeometry width="50" height="50" relative="1" as="geometry">
            <mxPoint x="54" y="-25" as="sourcePoint" />
            <mxPoint x="54" y="55" as="targetPoint" />
          </mxGeometry>
        </mxCell>
        <mxCell id="U_zzFxPC7SBMpID13DP9-142" value="" style="endArrow=none;html=1;rounded=0;" parent="U_zzFxPC7SBMpID13DP9-140" edge="1">
          <mxGeometry width="50" height="50" relative="1" as="geometry">
            <mxPoint x="30" y="-25" as="sourcePoint" />
            <mxPoint x="30" y="55" as="targetPoint" />
          </mxGeometry>
        </mxCell>
        <mxCell id="U_zzFxPC7SBMpID13DP9-143" value="" style="rounded=0;whiteSpace=wrap;html=1;rotation=90;" parent="U_zzFxPC7SBMpID13DP9-140" vertex="1">
          <mxGeometry x="22" y="5" width="40" height="20" as="geometry" />
        </mxCell>
        <mxCell id="U_zzFxPC7SBMpID13DP9-144" value="" style="endArrow=none;html=1;rounded=0;" parent="U_zzFxPC7SBMpID13DP9-140" edge="1">
          <mxGeometry width="50" height="50" relative="1" as="geometry">
            <mxPoint x="25" y="19" as="sourcePoint" />
            <mxPoint x="30" y="15" as="targetPoint" />
          </mxGeometry>
        </mxCell>
        <mxCell id="U_zzFxPC7SBMpID13DP9-145" value="" style="endArrow=none;html=1;rounded=0;" parent="U_zzFxPC7SBMpID13DP9-140" edge="1">
          <mxGeometry width="50" height="50" relative="1" as="geometry">
            <mxPoint x="25" y="-1" as="sourcePoint" />
            <mxPoint x="30" y="-5" as="targetPoint" />
          </mxGeometry>
        </mxCell>
        <mxCell id="U_zzFxPC7SBMpID13DP9-146" value="" style="endArrow=none;html=1;rounded=0;" parent="U_zzFxPC7SBMpID13DP9-140" edge="1">
          <mxGeometry width="50" height="50" relative="1" as="geometry">
            <mxPoint x="25" y="-21" as="sourcePoint" />
            <mxPoint x="30" y="-25" as="targetPoint" />
          </mxGeometry>
        </mxCell>
        <mxCell id="U_zzFxPC7SBMpID13DP9-147" value="" style="endArrow=none;html=1;rounded=0;" parent="U_zzFxPC7SBMpID13DP9-140" edge="1">
          <mxGeometry width="50" height="50" relative="1" as="geometry">
            <mxPoint x="25" y="59" as="sourcePoint" />
            <mxPoint x="30" y="55" as="targetPoint" />
          </mxGeometry>
        </mxCell>
        <mxCell id="U_zzFxPC7SBMpID13DP9-148" value="" style="endArrow=none;html=1;rounded=0;" parent="U_zzFxPC7SBMpID13DP9-140" edge="1">
          <mxGeometry width="50" height="50" relative="1" as="geometry">
            <mxPoint x="25" y="39" as="sourcePoint" />
            <mxPoint x="30" y="35" as="targetPoint" />
          </mxGeometry>
        </mxCell>
        <mxCell id="U_zzFxPC7SBMpID13DP9-149" value="" style="endArrow=none;html=1;rounded=0;" parent="U_zzFxPC7SBMpID13DP9-140" edge="1">
          <mxGeometry width="50" height="50" relative="1" as="geometry">
            <mxPoint x="25" y="19" as="sourcePoint" />
            <mxPoint x="30" y="15" as="targetPoint" />
          </mxGeometry>
        </mxCell>
        <mxCell id="U_zzFxPC7SBMpID13DP9-150" value="" style="endArrow=none;html=1;rounded=0;" parent="U_zzFxPC7SBMpID13DP9-140" edge="1">
          <mxGeometry width="50" height="50" relative="1" as="geometry">
            <mxPoint x="59" y="-1" as="sourcePoint" />
            <mxPoint x="54" y="-5" as="targetPoint" />
          </mxGeometry>
        </mxCell>
        <mxCell id="U_zzFxPC7SBMpID13DP9-151" value="" style="endArrow=none;html=1;rounded=0;" parent="U_zzFxPC7SBMpID13DP9-140" edge="1">
          <mxGeometry width="50" height="50" relative="1" as="geometry">
            <mxPoint x="59" y="-21" as="sourcePoint" />
            <mxPoint x="54" y="-25" as="targetPoint" />
          </mxGeometry>
        </mxCell>
        <mxCell id="U_zzFxPC7SBMpID13DP9-152" value="" style="endArrow=none;html=1;rounded=0;" parent="U_zzFxPC7SBMpID13DP9-140" edge="1">
          <mxGeometry width="50" height="50" relative="1" as="geometry">
            <mxPoint x="59" y="59" as="sourcePoint" />
            <mxPoint x="54" y="55" as="targetPoint" />
          </mxGeometry>
        </mxCell>
        <mxCell id="U_zzFxPC7SBMpID13DP9-153" value="" style="endArrow=none;html=1;rounded=0;" parent="U_zzFxPC7SBMpID13DP9-140" edge="1">
          <mxGeometry width="50" height="50" relative="1" as="geometry">
            <mxPoint x="59" y="39" as="sourcePoint" />
            <mxPoint x="54" y="35" as="targetPoint" />
          </mxGeometry>
        </mxCell>
        <mxCell id="U_zzFxPC7SBMpID13DP9-154" value="" style="endArrow=none;html=1;rounded=0;" parent="U_zzFxPC7SBMpID13DP9-140" edge="1">
          <mxGeometry width="50" height="50" relative="1" as="geometry">
            <mxPoint x="59" y="19" as="sourcePoint" />
            <mxPoint x="54" y="15" as="targetPoint" />
          </mxGeometry>
        </mxCell>
        <mxCell id="U_zzFxPC7SBMpID13DP9-155" value="" style="endArrow=none;html=1;rounded=0;" parent="U_zzFxPC7SBMpID13DP9-140" edge="1">
          <mxGeometry width="50" height="50" relative="1" as="geometry">
            <mxPoint x="59" y="9" as="sourcePoint" />
            <mxPoint x="54" y="5" as="targetPoint" />
          </mxGeometry>
        </mxCell>
        <mxCell id="U_zzFxPC7SBMpID13DP9-156" value="" style="endArrow=none;html=1;rounded=0;" parent="U_zzFxPC7SBMpID13DP9-140" edge="1">
          <mxGeometry width="50" height="50" relative="1" as="geometry">
            <mxPoint x="59" y="-11" as="sourcePoint" />
            <mxPoint x="54" y="-15" as="targetPoint" />
          </mxGeometry>
        </mxCell>
        <mxCell id="U_zzFxPC7SBMpID13DP9-157" value="" style="endArrow=none;html=1;rounded=0;" parent="U_zzFxPC7SBMpID13DP9-140" edge="1">
          <mxGeometry width="50" height="50" relative="1" as="geometry">
            <mxPoint x="59" y="49" as="sourcePoint" />
            <mxPoint x="54" y="45" as="targetPoint" />
          </mxGeometry>
        </mxCell>
        <mxCell id="U_zzFxPC7SBMpID13DP9-158" value="" style="endArrow=none;html=1;rounded=0;" parent="U_zzFxPC7SBMpID13DP9-140" edge="1">
          <mxGeometry width="50" height="50" relative="1" as="geometry">
            <mxPoint x="59" y="29" as="sourcePoint" />
            <mxPoint x="54" y="25" as="targetPoint" />
          </mxGeometry>
        </mxCell>
        <mxCell id="U_zzFxPC7SBMpID13DP9-159" value="" style="endArrow=none;html=1;rounded=0;" parent="U_zzFxPC7SBMpID13DP9-140" edge="1">
          <mxGeometry width="50" height="50" relative="1" as="geometry">
            <mxPoint x="25" y="9" as="sourcePoint" />
            <mxPoint x="30" y="5" as="targetPoint" />
          </mxGeometry>
        </mxCell>
        <mxCell id="U_zzFxPC7SBMpID13DP9-160" value="" style="endArrow=none;html=1;rounded=0;" parent="U_zzFxPC7SBMpID13DP9-140" edge="1">
          <mxGeometry width="50" height="50" relative="1" as="geometry">
            <mxPoint x="25" y="-11" as="sourcePoint" />
            <mxPoint x="30" y="-15" as="targetPoint" />
          </mxGeometry>
        </mxCell>
        <mxCell id="U_zzFxPC7SBMpID13DP9-161" value="" style="endArrow=none;html=1;rounded=0;" parent="U_zzFxPC7SBMpID13DP9-140" edge="1">
          <mxGeometry width="50" height="50" relative="1" as="geometry">
            <mxPoint x="25" y="49" as="sourcePoint" />
            <mxPoint x="30" y="45" as="targetPoint" />
          </mxGeometry>
        </mxCell>
        <mxCell id="U_zzFxPC7SBMpID13DP9-162" value="" style="endArrow=none;html=1;rounded=0;" parent="U_zzFxPC7SBMpID13DP9-140" edge="1">
          <mxGeometry width="50" height="50" relative="1" as="geometry">
            <mxPoint x="25" y="29" as="sourcePoint" />
            <mxPoint x="30" y="25" as="targetPoint" />
          </mxGeometry>
        </mxCell>
        <mxCell id="U_zzFxPC7SBMpID13DP9-166" value="" style="endArrow=none;html=1;rounded=0;strokeWidth=3;exitX=0;exitY=0.5;exitDx=0;exitDy=0;" parent="1" source="U_zzFxPC7SBMpID13DP9-168" target="U_zzFxPC7SBMpID13DP9-138" edge="1">
          <mxGeometry width="50" height="50" relative="1" as="geometry">
            <mxPoint x="1007.1694182324625" y="1054.910668253232" as="sourcePoint" />
            <mxPoint x="1053" y="955" as="targetPoint" />
          </mxGeometry>
        </mxCell>
        <mxCell id="U_zzFxPC7SBMpID13DP9-168" value="" style="ellipse;whiteSpace=wrap;html=1;aspect=fixed;" parent="1" vertex="1">
          <mxGeometry x="991" y="959" width="20" height="20" as="geometry" />
        </mxCell>
        <mxCell id="U_zzFxPC7SBMpID13DP9-169" value="" style="endArrow=none;html=1;rounded=0;strokeWidth=3;exitX=0;exitY=0.5;exitDx=0;exitDy=0;" parent="1" source="U_zzFxPC7SBMpID13DP9-143" target="U_zzFxPC7SBMpID13DP9-168" edge="1">
          <mxGeometry width="50" height="50" relative="1" as="geometry">
            <mxPoint x="1005" y="1044" as="sourcePoint" />
            <mxPoint x="1002" y="969" as="targetPoint" />
          </mxGeometry>
        </mxCell>
        <mxCell id="U_zzFxPC7SBMpID13DP9-170" value="" style="group" parent="1" vertex="1" connectable="0">
          <mxGeometry x="370" y="483" width="84" height="34" as="geometry" />
        </mxCell>
        <mxCell id="U_zzFxPC7SBMpID13DP9-171" value="" style="endArrow=none;html=1;rounded=0;" parent="U_zzFxPC7SBMpID13DP9-170" edge="1">
          <mxGeometry width="50" height="50" relative="1" as="geometry">
            <mxPoint y="5" as="sourcePoint" />
            <mxPoint x="80" y="5" as="targetPoint" />
          </mxGeometry>
        </mxCell>
        <mxCell id="U_zzFxPC7SBMpID13DP9-172" value="" style="endArrow=none;html=1;rounded=0;" parent="U_zzFxPC7SBMpID13DP9-170" edge="1">
          <mxGeometry width="50" height="50" relative="1" as="geometry">
            <mxPoint y="29" as="sourcePoint" />
            <mxPoint x="80" y="29" as="targetPoint" />
          </mxGeometry>
        </mxCell>
        <mxCell id="U_zzFxPC7SBMpID13DP9-173" value="" style="endArrow=none;html=1;rounded=0;" parent="U_zzFxPC7SBMpID13DP9-170" edge="1">
          <mxGeometry width="50" height="50" relative="1" as="geometry">
            <mxPoint x="44" y="34" as="sourcePoint" />
            <mxPoint x="40" y="29" as="targetPoint" />
          </mxGeometry>
        </mxCell>
        <mxCell id="U_zzFxPC7SBMpID13DP9-174" value="" style="endArrow=none;html=1;rounded=0;" parent="U_zzFxPC7SBMpID13DP9-170" edge="1">
          <mxGeometry width="50" height="50" relative="1" as="geometry">
            <mxPoint x="24" y="34" as="sourcePoint" />
            <mxPoint x="20" y="29" as="targetPoint" />
          </mxGeometry>
        </mxCell>
        <mxCell id="U_zzFxPC7SBMpID13DP9-175" value="" style="endArrow=none;html=1;rounded=0;" parent="U_zzFxPC7SBMpID13DP9-170" edge="1">
          <mxGeometry width="50" height="50" relative="1" as="geometry">
            <mxPoint x="4" y="34" as="sourcePoint" />
            <mxPoint y="29" as="targetPoint" />
          </mxGeometry>
        </mxCell>
        <mxCell id="U_zzFxPC7SBMpID13DP9-176" value="" style="endArrow=none;html=1;rounded=0;" parent="U_zzFxPC7SBMpID13DP9-170" edge="1">
          <mxGeometry width="50" height="50" relative="1" as="geometry">
            <mxPoint x="84" y="34" as="sourcePoint" />
            <mxPoint x="80" y="29" as="targetPoint" />
          </mxGeometry>
        </mxCell>
        <mxCell id="U_zzFxPC7SBMpID13DP9-177" value="" style="endArrow=none;html=1;rounded=0;" parent="U_zzFxPC7SBMpID13DP9-170" edge="1">
          <mxGeometry width="50" height="50" relative="1" as="geometry">
            <mxPoint x="64" y="34" as="sourcePoint" />
            <mxPoint x="60" y="29" as="targetPoint" />
          </mxGeometry>
        </mxCell>
        <mxCell id="U_zzFxPC7SBMpID13DP9-178" value="" style="endArrow=none;html=1;rounded=0;" parent="U_zzFxPC7SBMpID13DP9-170" edge="1">
          <mxGeometry width="50" height="50" relative="1" as="geometry">
            <mxPoint x="44" y="34" as="sourcePoint" />
            <mxPoint x="40" y="29" as="targetPoint" />
          </mxGeometry>
        </mxCell>
        <mxCell id="U_zzFxPC7SBMpID13DP9-179" value="" style="endArrow=none;html=1;rounded=0;" parent="U_zzFxPC7SBMpID13DP9-170" edge="1">
          <mxGeometry width="50" height="50" relative="1" as="geometry">
            <mxPoint x="24" as="sourcePoint" />
            <mxPoint x="20" y="5" as="targetPoint" />
          </mxGeometry>
        </mxCell>
        <mxCell id="U_zzFxPC7SBMpID13DP9-180" value="" style="endArrow=none;html=1;rounded=0;" parent="U_zzFxPC7SBMpID13DP9-170" edge="1">
          <mxGeometry width="50" height="50" relative="1" as="geometry">
            <mxPoint x="4" as="sourcePoint" />
            <mxPoint y="5" as="targetPoint" />
          </mxGeometry>
        </mxCell>
        <mxCell id="U_zzFxPC7SBMpID13DP9-181" value="" style="endArrow=none;html=1;rounded=0;" parent="U_zzFxPC7SBMpID13DP9-170" edge="1">
          <mxGeometry width="50" height="50" relative="1" as="geometry">
            <mxPoint x="84" as="sourcePoint" />
            <mxPoint x="80" y="5" as="targetPoint" />
          </mxGeometry>
        </mxCell>
        <mxCell id="U_zzFxPC7SBMpID13DP9-182" value="" style="endArrow=none;html=1;rounded=0;" parent="U_zzFxPC7SBMpID13DP9-170" edge="1">
          <mxGeometry width="50" height="50" relative="1" as="geometry">
            <mxPoint x="64" as="sourcePoint" />
            <mxPoint x="60" y="5" as="targetPoint" />
          </mxGeometry>
        </mxCell>
        <mxCell id="U_zzFxPC7SBMpID13DP9-183" value="" style="endArrow=none;html=1;rounded=0;" parent="U_zzFxPC7SBMpID13DP9-170" edge="1">
          <mxGeometry width="50" height="50" relative="1" as="geometry">
            <mxPoint x="44" as="sourcePoint" />
            <mxPoint x="40" y="5" as="targetPoint" />
          </mxGeometry>
        </mxCell>
        <mxCell id="U_zzFxPC7SBMpID13DP9-184" value="" style="endArrow=none;html=1;rounded=0;" parent="U_zzFxPC7SBMpID13DP9-170" edge="1">
          <mxGeometry width="50" height="50" relative="1" as="geometry">
            <mxPoint x="34" as="sourcePoint" />
            <mxPoint x="30" y="5" as="targetPoint" />
          </mxGeometry>
        </mxCell>
        <mxCell id="U_zzFxPC7SBMpID13DP9-185" value="" style="endArrow=none;html=1;rounded=0;" parent="U_zzFxPC7SBMpID13DP9-170" edge="1">
          <mxGeometry width="50" height="50" relative="1" as="geometry">
            <mxPoint x="14" as="sourcePoint" />
            <mxPoint x="10" y="5" as="targetPoint" />
          </mxGeometry>
        </mxCell>
        <mxCell id="U_zzFxPC7SBMpID13DP9-186" value="" style="endArrow=none;html=1;rounded=0;" parent="U_zzFxPC7SBMpID13DP9-170" edge="1">
          <mxGeometry width="50" height="50" relative="1" as="geometry">
            <mxPoint x="74" as="sourcePoint" />
            <mxPoint x="70" y="5" as="targetPoint" />
          </mxGeometry>
        </mxCell>
        <mxCell id="U_zzFxPC7SBMpID13DP9-187" value="" style="endArrow=none;html=1;rounded=0;" parent="U_zzFxPC7SBMpID13DP9-170" edge="1">
          <mxGeometry width="50" height="50" relative="1" as="geometry">
            <mxPoint x="54" as="sourcePoint" />
            <mxPoint x="50" y="5" as="targetPoint" />
          </mxGeometry>
        </mxCell>
        <mxCell id="U_zzFxPC7SBMpID13DP9-188" value="" style="endArrow=none;html=1;rounded=0;" parent="U_zzFxPC7SBMpID13DP9-170" edge="1">
          <mxGeometry width="50" height="50" relative="1" as="geometry">
            <mxPoint x="34" y="34" as="sourcePoint" />
            <mxPoint x="30" y="29" as="targetPoint" />
          </mxGeometry>
        </mxCell>
        <mxCell id="U_zzFxPC7SBMpID13DP9-189" value="" style="endArrow=none;html=1;rounded=0;" parent="U_zzFxPC7SBMpID13DP9-170" edge="1">
          <mxGeometry width="50" height="50" relative="1" as="geometry">
            <mxPoint x="14" y="34" as="sourcePoint" />
            <mxPoint x="10" y="29" as="targetPoint" />
          </mxGeometry>
        </mxCell>
        <mxCell id="U_zzFxPC7SBMpID13DP9-190" value="" style="endArrow=none;html=1;rounded=0;" parent="U_zzFxPC7SBMpID13DP9-170" edge="1">
          <mxGeometry width="50" height="50" relative="1" as="geometry">
            <mxPoint x="74" y="34" as="sourcePoint" />
            <mxPoint x="70" y="29" as="targetPoint" />
          </mxGeometry>
        </mxCell>
        <mxCell id="U_zzFxPC7SBMpID13DP9-191" value="" style="endArrow=none;html=1;rounded=0;" parent="U_zzFxPC7SBMpID13DP9-170" edge="1">
          <mxGeometry width="50" height="50" relative="1" as="geometry">
            <mxPoint x="54" y="34" as="sourcePoint" />
            <mxPoint x="50" y="29" as="targetPoint" />
          </mxGeometry>
        </mxCell>
        <mxCell id="U_zzFxPC7SBMpID13DP9-192" value="" style="ellipse;whiteSpace=wrap;html=1;aspect=fixed;fillColor=#919191;strokeWidth=0;perimeterSpacing=0;" parent="U_zzFxPC7SBMpID13DP9-170" vertex="1">
          <mxGeometry x="29" y="5.5" width="23" height="23" as="geometry" />
        </mxCell>
        <mxCell id="U_zzFxPC7SBMpID13DP9-196" value="" style="endArrow=none;html=1;rounded=0;strokeWidth=3;" parent="1" source="U_zzFxPC7SBMpID13DP9-202" target="U_zzFxPC7SBMpID13DP9-194" edge="1">
          <mxGeometry width="50" height="50" relative="1" as="geometry">
            <mxPoint x="1124.2074871289522" y="968.7470628381766" as="sourcePoint" />
            <mxPoint x="1178" y="869" as="targetPoint" />
          </mxGeometry>
        </mxCell>
        <mxCell id="U_zzFxPC7SBMpID13DP9-199" value="" style="group" parent="1" vertex="1" connectable="0">
          <mxGeometry x="1103" y="939" width="44" height="45" as="geometry" />
        </mxCell>
        <mxCell id="U_zzFxPC7SBMpID13DP9-200" value="" style="group" parent="U_zzFxPC7SBMpID13DP9-199" vertex="1" connectable="0">
          <mxGeometry width="40" height="40" as="geometry" />
        </mxCell>
        <mxCell id="U_zzFxPC7SBMpID13DP9-201" value="" style="endArrow=none;html=1;rounded=0;" parent="U_zzFxPC7SBMpID13DP9-200" edge="1">
          <mxGeometry width="50" height="50" relative="1" as="geometry">
            <mxPoint y="40" as="sourcePoint" />
            <mxPoint y="40" as="targetPoint" />
            <Array as="points">
              <mxPoint x="30" y="40" />
              <mxPoint x="40" y="40" />
              <mxPoint x="30" />
              <mxPoint x="10" />
            </Array>
          </mxGeometry>
        </mxCell>
        <mxCell id="U_zzFxPC7SBMpID13DP9-202" value="" style="ellipse;whiteSpace=wrap;html=1;aspect=fixed;" parent="U_zzFxPC7SBMpID13DP9-200" vertex="1">
          <mxGeometry x="10" y="10" width="20" height="20" as="geometry" />
        </mxCell>
        <mxCell id="U_zzFxPC7SBMpID13DP9-203" value="" style="endArrow=none;html=1;rounded=0;" parent="U_zzFxPC7SBMpID13DP9-199" edge="1">
          <mxGeometry width="50" height="50" relative="1" as="geometry">
            <mxPoint x="14" y="45" as="sourcePoint" />
            <mxPoint x="10" y="40" as="targetPoint" />
          </mxGeometry>
        </mxCell>
        <mxCell id="U_zzFxPC7SBMpID13DP9-204" value="" style="endArrow=none;html=1;rounded=0;" parent="U_zzFxPC7SBMpID13DP9-199" edge="1">
          <mxGeometry width="50" height="50" relative="1" as="geometry">
            <mxPoint x="24" y="45" as="sourcePoint" />
            <mxPoint x="20" y="40" as="targetPoint" />
          </mxGeometry>
        </mxCell>
        <mxCell id="U_zzFxPC7SBMpID13DP9-205" value="" style="endArrow=none;html=1;rounded=0;" parent="U_zzFxPC7SBMpID13DP9-199" edge="1">
          <mxGeometry width="50" height="50" relative="1" as="geometry">
            <mxPoint x="34" y="45" as="sourcePoint" />
            <mxPoint x="30" y="40" as="targetPoint" />
          </mxGeometry>
        </mxCell>
        <mxCell id="U_zzFxPC7SBMpID13DP9-206" value="" style="endArrow=none;html=1;rounded=0;" parent="U_zzFxPC7SBMpID13DP9-199" edge="1">
          <mxGeometry width="50" height="50" relative="1" as="geometry">
            <mxPoint x="44" y="45" as="sourcePoint" />
            <mxPoint x="40" y="40" as="targetPoint" />
          </mxGeometry>
        </mxCell>
        <mxCell id="U_zzFxPC7SBMpID13DP9-207" value="" style="endArrow=none;html=1;rounded=0;" parent="U_zzFxPC7SBMpID13DP9-199" edge="1">
          <mxGeometry width="50" height="50" relative="1" as="geometry">
            <mxPoint x="4" y="45" as="sourcePoint" />
            <mxPoint y="40" as="targetPoint" />
          </mxGeometry>
        </mxCell>
        <mxCell id="U_zzFxPC7SBMpID13DP9-216" value="e." style="text;html=1;align=center;verticalAlign=middle;whiteSpace=wrap;rounded=0;fontFamily=Georgia;fontSize=29;" parent="1" vertex="1">
          <mxGeometry x="922" y="789" width="60" height="30" as="geometry" />
        </mxCell>
        <mxCell id="U_zzFxPC7SBMpID13DP9-217" value="" style="group" parent="1" vertex="1" connectable="0">
          <mxGeometry x="480" y="800" width="80" height="45" as="geometry" />
        </mxCell>
        <mxCell id="U_zzFxPC7SBMpID13DP9-218" value="" style="group" parent="U_zzFxPC7SBMpID13DP9-217" vertex="1" connectable="0">
          <mxGeometry width="80" height="40" as="geometry" />
        </mxCell>
        <mxCell id="U_zzFxPC7SBMpID13DP9-219" value="" style="endArrow=none;html=1;rounded=0;" parent="U_zzFxPC7SBMpID13DP9-218" edge="1">
          <mxGeometry width="50" height="50" relative="1" as="geometry">
            <mxPoint y="40" as="sourcePoint" />
            <mxPoint y="40" as="targetPoint" />
            <Array as="points">
              <mxPoint x="30" y="40" />
              <mxPoint x="40" y="40" />
              <mxPoint x="30" />
              <mxPoint x="10" />
            </Array>
          </mxGeometry>
        </mxCell>
        <mxCell id="U_zzFxPC7SBMpID13DP9-220" value="" style="ellipse;whiteSpace=wrap;html=1;aspect=fixed;" parent="U_zzFxPC7SBMpID13DP9-218" vertex="1">
          <mxGeometry x="10" y="10" width="20" height="20" as="geometry" />
        </mxCell>
        <mxCell id="U_zzFxPC7SBMpID13DP9-221" value="" style="ellipse;whiteSpace=wrap;html=1;aspect=fixed;" parent="U_zzFxPC7SBMpID13DP9-218" vertex="1">
          <mxGeometry x="10" y="10" width="20" height="20" as="geometry" />
        </mxCell>
        <mxCell id="U_zzFxPC7SBMpID13DP9-222" value="" style="endArrow=none;html=1;rounded=0;" parent="U_zzFxPC7SBMpID13DP9-217" edge="1">
          <mxGeometry width="50" height="50" relative="1" as="geometry">
            <mxPoint x="14" y="45" as="sourcePoint" />
            <mxPoint x="10" y="40" as="targetPoint" />
          </mxGeometry>
        </mxCell>
        <mxCell id="U_zzFxPC7SBMpID13DP9-223" value="" style="endArrow=none;html=1;rounded=0;" parent="U_zzFxPC7SBMpID13DP9-217" edge="1">
          <mxGeometry width="50" height="50" relative="1" as="geometry">
            <mxPoint x="24" y="45" as="sourcePoint" />
            <mxPoint x="20" y="40" as="targetPoint" />
          </mxGeometry>
        </mxCell>
        <mxCell id="U_zzFxPC7SBMpID13DP9-224" value="" style="endArrow=none;html=1;rounded=0;" parent="U_zzFxPC7SBMpID13DP9-217" edge="1">
          <mxGeometry width="50" height="50" relative="1" as="geometry">
            <mxPoint x="34" y="45" as="sourcePoint" />
            <mxPoint x="30" y="40" as="targetPoint" />
          </mxGeometry>
        </mxCell>
        <mxCell id="U_zzFxPC7SBMpID13DP9-225" value="" style="endArrow=none;html=1;rounded=0;" parent="U_zzFxPC7SBMpID13DP9-217" edge="1">
          <mxGeometry width="50" height="50" relative="1" as="geometry">
            <mxPoint x="44" y="45" as="sourcePoint" />
            <mxPoint x="40" y="40" as="targetPoint" />
          </mxGeometry>
        </mxCell>
        <mxCell id="U_zzFxPC7SBMpID13DP9-226" value="" style="endArrow=none;html=1;rounded=0;" parent="U_zzFxPC7SBMpID13DP9-217" edge="1">
          <mxGeometry width="50" height="50" relative="1" as="geometry">
            <mxPoint x="4" y="45" as="sourcePoint" />
            <mxPoint y="40" as="targetPoint" />
          </mxGeometry>
        </mxCell>
        <mxCell id="U_zzFxPC7SBMpID13DP9-227" value="" style="group" parent="1" vertex="1" connectable="0">
          <mxGeometry x="680" y="800" width="44" height="45" as="geometry" />
        </mxCell>
        <mxCell id="U_zzFxPC7SBMpID13DP9-228" value="" style="group" parent="U_zzFxPC7SBMpID13DP9-227" vertex="1" connectable="0">
          <mxGeometry width="40" height="40" as="geometry" />
        </mxCell>
        <mxCell id="U_zzFxPC7SBMpID13DP9-229" value="" style="endArrow=none;html=1;rounded=0;" parent="U_zzFxPC7SBMpID13DP9-228" edge="1">
          <mxGeometry width="50" height="50" relative="1" as="geometry">
            <mxPoint y="40" as="sourcePoint" />
            <mxPoint y="40" as="targetPoint" />
            <Array as="points">
              <mxPoint x="30" y="40" />
              <mxPoint x="40" y="40" />
              <mxPoint x="30" />
              <mxPoint x="10" />
            </Array>
          </mxGeometry>
        </mxCell>
        <mxCell id="U_zzFxPC7SBMpID13DP9-230" value="" style="ellipse;whiteSpace=wrap;html=1;aspect=fixed;" parent="U_zzFxPC7SBMpID13DP9-228" vertex="1">
          <mxGeometry x="10" y="10" width="20" height="20" as="geometry" />
        </mxCell>
        <mxCell id="U_zzFxPC7SBMpID13DP9-231" value="" style="ellipse;whiteSpace=wrap;html=1;aspect=fixed;" parent="U_zzFxPC7SBMpID13DP9-228" vertex="1">
          <mxGeometry x="10" y="10" width="20" height="20" as="geometry" />
        </mxCell>
        <mxCell id="U_zzFxPC7SBMpID13DP9-232" value="" style="endArrow=none;html=1;rounded=0;" parent="U_zzFxPC7SBMpID13DP9-227" edge="1">
          <mxGeometry width="50" height="50" relative="1" as="geometry">
            <mxPoint x="14" y="45" as="sourcePoint" />
            <mxPoint x="10" y="40" as="targetPoint" />
          </mxGeometry>
        </mxCell>
        <mxCell id="U_zzFxPC7SBMpID13DP9-233" value="" style="endArrow=none;html=1;rounded=0;" parent="U_zzFxPC7SBMpID13DP9-227" edge="1">
          <mxGeometry width="50" height="50" relative="1" as="geometry">
            <mxPoint x="24" y="45" as="sourcePoint" />
            <mxPoint x="20" y="40" as="targetPoint" />
          </mxGeometry>
        </mxCell>
        <mxCell id="U_zzFxPC7SBMpID13DP9-234" value="" style="endArrow=none;html=1;rounded=0;" parent="U_zzFxPC7SBMpID13DP9-227" edge="1">
          <mxGeometry width="50" height="50" relative="1" as="geometry">
            <mxPoint x="34" y="45" as="sourcePoint" />
            <mxPoint x="30" y="40" as="targetPoint" />
          </mxGeometry>
        </mxCell>
        <mxCell id="U_zzFxPC7SBMpID13DP9-235" value="" style="endArrow=none;html=1;rounded=0;" parent="U_zzFxPC7SBMpID13DP9-227" edge="1">
          <mxGeometry width="50" height="50" relative="1" as="geometry">
            <mxPoint x="44" y="45" as="sourcePoint" />
            <mxPoint x="40" y="40" as="targetPoint" />
          </mxGeometry>
        </mxCell>
        <mxCell id="U_zzFxPC7SBMpID13DP9-236" value="" style="endArrow=none;html=1;rounded=0;" parent="U_zzFxPC7SBMpID13DP9-227" edge="1">
          <mxGeometry width="50" height="50" relative="1" as="geometry">
            <mxPoint x="4" y="45" as="sourcePoint" />
            <mxPoint y="40" as="targetPoint" />
          </mxGeometry>
        </mxCell>
        <mxCell id="U_zzFxPC7SBMpID13DP9-237" value="" style="endArrow=none;html=1;rounded=0;strokeWidth=3;" parent="1" source="U_zzFxPC7SBMpID13DP9-238" target="U_zzFxPC7SBMpID13DP9-239" edge="1">
          <mxGeometry width="50" height="50" relative="1" as="geometry">
            <mxPoint x="500" y="811" as="sourcePoint" />
            <mxPoint x="550" y="711" as="targetPoint" />
          </mxGeometry>
        </mxCell>
        <mxCell id="U_zzFxPC7SBMpID13DP9-238" value="" style="ellipse;whiteSpace=wrap;html=1;aspect=fixed;" parent="1" vertex="1">
          <mxGeometry x="490" y="810" width="20" height="20" as="geometry" />
        </mxCell>
        <mxCell id="U_zzFxPC7SBMpID13DP9-239" value="" style="ellipse;whiteSpace=wrap;html=1;aspect=fixed;" parent="1" vertex="1">
          <mxGeometry x="550" y="710" width="20" height="20" as="geometry" />
        </mxCell>
        <mxCell id="U_zzFxPC7SBMpID13DP9-240" value="" style="endArrow=none;html=1;rounded=0;strokeWidth=3;" parent="1" source="U_zzFxPC7SBMpID13DP9-221" target="U_zzFxPC7SBMpID13DP9-231" edge="1">
          <mxGeometry width="50" height="50" relative="1" as="geometry">
            <mxPoint x="500" y="811" as="sourcePoint" />
            <mxPoint x="550" y="711" as="targetPoint" />
          </mxGeometry>
        </mxCell>
        <mxCell id="U_zzFxPC7SBMpID13DP9-241" value="" style="endArrow=none;html=1;rounded=0;strokeWidth=3;" parent="1" source="U_zzFxPC7SBMpID13DP9-242" target="U_zzFxPC7SBMpID13DP9-243" edge="1">
          <mxGeometry width="50" height="50" relative="1" as="geometry">
            <mxPoint x="700" y="811" as="sourcePoint" />
            <mxPoint x="750" y="711" as="targetPoint" />
          </mxGeometry>
        </mxCell>
        <mxCell id="U_zzFxPC7SBMpID13DP9-242" value="" style="ellipse;whiteSpace=wrap;html=1;aspect=fixed;" parent="1" vertex="1">
          <mxGeometry x="690" y="810" width="20" height="20" as="geometry" />
        </mxCell>
        <mxCell id="U_zzFxPC7SBMpID13DP9-243" value="" style="ellipse;whiteSpace=wrap;html=1;aspect=fixed;" parent="1" vertex="1">
          <mxGeometry x="630" y="710" width="20" height="20" as="geometry" />
        </mxCell>
        <mxCell id="U_zzFxPC7SBMpID13DP9-244" value="" style="endArrow=none;html=1;rounded=0;strokeWidth=3;" parent="1" source="U_zzFxPC7SBMpID13DP9-239" target="U_zzFxPC7SBMpID13DP9-243" edge="1">
          <mxGeometry width="50" height="50" relative="1" as="geometry">
            <mxPoint x="709" y="820" as="sourcePoint" />
            <mxPoint x="691" y="690" as="targetPoint" />
          </mxGeometry>
        </mxCell>
        <mxCell id="U_zzFxPC7SBMpID13DP9-245" value="5" style="text;html=1;align=center;verticalAlign=middle;whiteSpace=wrap;rounded=0;fontSize=24;fontFamily=Helvetica;" parent="1" vertex="1">
          <mxGeometry x="570" y="825" width="60" height="30" as="geometry" />
        </mxCell>
        <mxCell id="U_zzFxPC7SBMpID13DP9-246" value="3,7" style="text;html=1;align=center;verticalAlign=middle;whiteSpace=wrap;rounded=0;fontSize=24;fontFamily=Helvetica;" parent="1" vertex="1">
          <mxGeometry x="664" y="730" width="60" height="30" as="geometry" />
        </mxCell>
        <mxCell id="U_zzFxPC7SBMpID13DP9-247" value="2" style="text;html=1;align=center;verticalAlign=middle;whiteSpace=wrap;rounded=0;fontSize=24;fontFamily=Helvetica;" parent="1" vertex="1">
          <mxGeometry x="570" y="690" width="60" height="30" as="geometry" />
        </mxCell>
        <mxCell id="U_zzFxPC7SBMpID13DP9-248" value="3,7" style="text;html=1;align=center;verticalAlign=middle;whiteSpace=wrap;rounded=0;fontSize=24;fontFamily=Helvetica;" parent="1" vertex="1">
          <mxGeometry x="490" y="730" width="60" height="30" as="geometry" />
        </mxCell>
        <mxCell id="U_zzFxPC7SBMpID13DP9-281" value="" style="group" parent="1" vertex="1" connectable="0">
          <mxGeometry x="199" y="1040" width="80" height="45" as="geometry" />
        </mxCell>
        <mxCell id="U_zzFxPC7SBMpID13DP9-282" value="" style="group" parent="U_zzFxPC7SBMpID13DP9-281" vertex="1" connectable="0">
          <mxGeometry width="80" height="40" as="geometry" />
        </mxCell>
        <mxCell id="U_zzFxPC7SBMpID13DP9-283" value="" style="endArrow=none;html=1;rounded=0;" parent="U_zzFxPC7SBMpID13DP9-282" edge="1">
          <mxGeometry width="50" height="50" relative="1" as="geometry">
            <mxPoint y="40" as="sourcePoint" />
            <mxPoint y="40" as="targetPoint" />
            <Array as="points">
              <mxPoint x="30" y="40" />
              <mxPoint x="40" y="40" />
              <mxPoint x="30" />
              <mxPoint x="10" />
            </Array>
          </mxGeometry>
        </mxCell>
        <mxCell id="U_zzFxPC7SBMpID13DP9-284" value="" style="ellipse;whiteSpace=wrap;html=1;aspect=fixed;" parent="U_zzFxPC7SBMpID13DP9-282" vertex="1">
          <mxGeometry x="10" y="10" width="20" height="20" as="geometry" />
        </mxCell>
        <mxCell id="U_zzFxPC7SBMpID13DP9-285" value="" style="ellipse;whiteSpace=wrap;html=1;aspect=fixed;" parent="U_zzFxPC7SBMpID13DP9-282" vertex="1">
          <mxGeometry x="10" y="10" width="20" height="20" as="geometry" />
        </mxCell>
        <mxCell id="U_zzFxPC7SBMpID13DP9-286" value="" style="endArrow=none;html=1;rounded=0;" parent="U_zzFxPC7SBMpID13DP9-281" edge="1">
          <mxGeometry width="50" height="50" relative="1" as="geometry">
            <mxPoint x="14" y="45" as="sourcePoint" />
            <mxPoint x="10" y="40" as="targetPoint" />
          </mxGeometry>
        </mxCell>
        <mxCell id="U_zzFxPC7SBMpID13DP9-287" value="" style="endArrow=none;html=1;rounded=0;" parent="U_zzFxPC7SBMpID13DP9-281" edge="1">
          <mxGeometry width="50" height="50" relative="1" as="geometry">
            <mxPoint x="24" y="45" as="sourcePoint" />
            <mxPoint x="20" y="40" as="targetPoint" />
          </mxGeometry>
        </mxCell>
        <mxCell id="U_zzFxPC7SBMpID13DP9-288" value="" style="endArrow=none;html=1;rounded=0;" parent="U_zzFxPC7SBMpID13DP9-281" edge="1">
          <mxGeometry width="50" height="50" relative="1" as="geometry">
            <mxPoint x="34" y="45" as="sourcePoint" />
            <mxPoint x="30" y="40" as="targetPoint" />
          </mxGeometry>
        </mxCell>
        <mxCell id="U_zzFxPC7SBMpID13DP9-289" value="" style="endArrow=none;html=1;rounded=0;" parent="U_zzFxPC7SBMpID13DP9-281" edge="1">
          <mxGeometry width="50" height="50" relative="1" as="geometry">
            <mxPoint x="44" y="45" as="sourcePoint" />
            <mxPoint x="40" y="40" as="targetPoint" />
          </mxGeometry>
        </mxCell>
        <mxCell id="U_zzFxPC7SBMpID13DP9-290" value="" style="endArrow=none;html=1;rounded=0;" parent="U_zzFxPC7SBMpID13DP9-281" edge="1">
          <mxGeometry width="50" height="50" relative="1" as="geometry">
            <mxPoint x="4" y="45" as="sourcePoint" />
            <mxPoint y="40" as="targetPoint" />
          </mxGeometry>
        </mxCell>
        <mxCell id="U_zzFxPC7SBMpID13DP9-291" value="" style="group" parent="1" vertex="1" connectable="0">
          <mxGeometry x="399" y="1040" width="44" height="45" as="geometry" />
        </mxCell>
        <mxCell id="U_zzFxPC7SBMpID13DP9-292" value="" style="group" parent="U_zzFxPC7SBMpID13DP9-291" vertex="1" connectable="0">
          <mxGeometry width="40" height="40" as="geometry" />
        </mxCell>
        <mxCell id="U_zzFxPC7SBMpID13DP9-293" value="" style="endArrow=none;html=1;rounded=0;" parent="U_zzFxPC7SBMpID13DP9-292" edge="1">
          <mxGeometry width="50" height="50" relative="1" as="geometry">
            <mxPoint y="40" as="sourcePoint" />
            <mxPoint y="40" as="targetPoint" />
            <Array as="points">
              <mxPoint x="30" y="40" />
              <mxPoint x="40" y="40" />
              <mxPoint x="30" />
              <mxPoint x="10" />
            </Array>
          </mxGeometry>
        </mxCell>
        <mxCell id="U_zzFxPC7SBMpID13DP9-294" value="" style="ellipse;whiteSpace=wrap;html=1;aspect=fixed;" parent="U_zzFxPC7SBMpID13DP9-292" vertex="1">
          <mxGeometry x="10" y="10" width="20" height="20" as="geometry" />
        </mxCell>
        <mxCell id="U_zzFxPC7SBMpID13DP9-295" value="" style="ellipse;whiteSpace=wrap;html=1;aspect=fixed;" parent="U_zzFxPC7SBMpID13DP9-292" vertex="1">
          <mxGeometry x="10" y="10" width="20" height="20" as="geometry" />
        </mxCell>
        <mxCell id="U_zzFxPC7SBMpID13DP9-296" value="" style="endArrow=none;html=1;rounded=0;" parent="U_zzFxPC7SBMpID13DP9-291" edge="1">
          <mxGeometry width="50" height="50" relative="1" as="geometry">
            <mxPoint x="14" y="45" as="sourcePoint" />
            <mxPoint x="10" y="40" as="targetPoint" />
          </mxGeometry>
        </mxCell>
        <mxCell id="U_zzFxPC7SBMpID13DP9-297" value="" style="endArrow=none;html=1;rounded=0;" parent="U_zzFxPC7SBMpID13DP9-291" edge="1">
          <mxGeometry width="50" height="50" relative="1" as="geometry">
            <mxPoint x="24" y="45" as="sourcePoint" />
            <mxPoint x="20" y="40" as="targetPoint" />
          </mxGeometry>
        </mxCell>
        <mxCell id="U_zzFxPC7SBMpID13DP9-298" value="" style="endArrow=none;html=1;rounded=0;" parent="U_zzFxPC7SBMpID13DP9-291" edge="1">
          <mxGeometry width="50" height="50" relative="1" as="geometry">
            <mxPoint x="34" y="45" as="sourcePoint" />
            <mxPoint x="30" y="40" as="targetPoint" />
          </mxGeometry>
        </mxCell>
        <mxCell id="U_zzFxPC7SBMpID13DP9-299" value="" style="endArrow=none;html=1;rounded=0;" parent="U_zzFxPC7SBMpID13DP9-291" edge="1">
          <mxGeometry width="50" height="50" relative="1" as="geometry">
            <mxPoint x="44" y="45" as="sourcePoint" />
            <mxPoint x="40" y="40" as="targetPoint" />
          </mxGeometry>
        </mxCell>
        <mxCell id="U_zzFxPC7SBMpID13DP9-300" value="" style="endArrow=none;html=1;rounded=0;" parent="U_zzFxPC7SBMpID13DP9-291" edge="1">
          <mxGeometry width="50" height="50" relative="1" as="geometry">
            <mxPoint x="4" y="45" as="sourcePoint" />
            <mxPoint y="40" as="targetPoint" />
          </mxGeometry>
        </mxCell>
        <mxCell id="U_zzFxPC7SBMpID13DP9-301" value="" style="endArrow=none;html=1;rounded=0;strokeWidth=3;" parent="1" source="U_zzFxPC7SBMpID13DP9-302" target="U_zzFxPC7SBMpID13DP9-303" edge="1">
          <mxGeometry width="50" height="50" relative="1" as="geometry">
            <mxPoint x="219" y="1051" as="sourcePoint" />
            <mxPoint x="269" y="951" as="targetPoint" />
          </mxGeometry>
        </mxCell>
        <mxCell id="U_zzFxPC7SBMpID13DP9-302" value="" style="ellipse;whiteSpace=wrap;html=1;aspect=fixed;" parent="1" vertex="1">
          <mxGeometry x="209" y="1050" width="20" height="20" as="geometry" />
        </mxCell>
        <mxCell id="U_zzFxPC7SBMpID13DP9-303" value="" style="ellipse;whiteSpace=wrap;html=1;aspect=fixed;" parent="1" vertex="1">
          <mxGeometry x="150" y="980" width="20" height="20" as="geometry" />
        </mxCell>
        <mxCell id="U_zzFxPC7SBMpID13DP9-304" value="" style="endArrow=none;html=1;rounded=0;strokeWidth=3;" parent="1" source="U_zzFxPC7SBMpID13DP9-285" target="U_zzFxPC7SBMpID13DP9-295" edge="1">
          <mxGeometry width="50" height="50" relative="1" as="geometry">
            <mxPoint x="219" y="1051" as="sourcePoint" />
            <mxPoint x="269" y="951" as="targetPoint" />
          </mxGeometry>
        </mxCell>
        <mxCell id="U_zzFxPC7SBMpID13DP9-305" value="" style="endArrow=none;html=1;rounded=0;strokeWidth=3;" parent="1" source="U_zzFxPC7SBMpID13DP9-306" target="U_zzFxPC7SBMpID13DP9-307" edge="1">
          <mxGeometry width="50" height="50" relative="1" as="geometry">
            <mxPoint x="419" y="1051" as="sourcePoint" />
            <mxPoint x="469" y="951" as="targetPoint" />
          </mxGeometry>
        </mxCell>
        <mxCell id="U_zzFxPC7SBMpID13DP9-306" value="" style="ellipse;whiteSpace=wrap;html=1;aspect=fixed;" parent="1" vertex="1">
          <mxGeometry x="409" y="1050" width="20" height="20" as="geometry" />
        </mxCell>
        <mxCell id="U_zzFxPC7SBMpID13DP9-307" value="" style="ellipse;whiteSpace=wrap;html=1;aspect=fixed;" parent="1" vertex="1">
          <mxGeometry x="411" y="891" width="20" height="20" as="geometry" />
        </mxCell>
        <mxCell id="U_zzFxPC7SBMpID13DP9-308" value="" style="endArrow=none;html=1;rounded=0;strokeWidth=3;" parent="1" source="U_zzFxPC7SBMpID13DP9-303" target="U_zzFxPC7SBMpID13DP9-307" edge="1">
          <mxGeometry width="50" height="50" relative="1" as="geometry">
            <mxPoint x="428" y="1060" as="sourcePoint" />
            <mxPoint x="410" y="930" as="targetPoint" />
          </mxGeometry>
        </mxCell>
        <mxCell id="U_zzFxPC7SBMpID13DP9-309" value="5" style="text;html=1;align=center;verticalAlign=middle;whiteSpace=wrap;rounded=0;fontSize=24;fontFamily=Helvetica;" parent="1" vertex="1">
          <mxGeometry x="289" y="1065" width="60" height="30" as="geometry" />
        </mxCell>
        <mxCell id="U_zzFxPC7SBMpID13DP9-310" value="4" style="text;html=1;align=center;verticalAlign=middle;whiteSpace=wrap;rounded=0;fontSize=24;fontFamily=Helvetica;" parent="1" vertex="1">
          <mxGeometry x="405" y="979" width="60" height="30" as="geometry" />
        </mxCell>
        <mxCell id="U_zzFxPC7SBMpID13DP9-311" value="8" style="text;html=1;align=center;verticalAlign=middle;whiteSpace=wrap;rounded=0;fontSize=24;fontFamily=Helvetica;" parent="1" vertex="1">
          <mxGeometry x="260" y="911" width="60" height="30" as="geometry" />
        </mxCell>
        <mxCell id="U_zzFxPC7SBMpID13DP9-312" value="2,5" style="text;html=1;align=center;verticalAlign=middle;whiteSpace=wrap;rounded=0;fontSize=24;fontFamily=Helvetica;" parent="1" vertex="1">
          <mxGeometry x="130" y="1021" width="60" height="30" as="geometry" />
        </mxCell>
        <mxCell id="U_zzFxPC7SBMpID13DP9-313" value="" style="group" parent="1" vertex="1" connectable="0">
          <mxGeometry x="561" y="1041" width="90" height="55" as="geometry" />
        </mxCell>
        <mxCell id="U_zzFxPC7SBMpID13DP9-314" value="" style="group" parent="U_zzFxPC7SBMpID13DP9-313" vertex="1" connectable="0">
          <mxGeometry width="90" height="55" as="geometry" />
        </mxCell>
        <mxCell id="U_zzFxPC7SBMpID13DP9-315" value="" style="endArrow=none;html=1;rounded=0;" parent="U_zzFxPC7SBMpID13DP9-314" edge="1">
          <mxGeometry width="50" height="50" relative="1" as="geometry">
            <mxPoint y="40" as="sourcePoint" />
            <mxPoint y="40" as="targetPoint" />
            <Array as="points">
              <mxPoint x="30" y="40" />
              <mxPoint x="40" y="40" />
              <mxPoint x="30" />
              <mxPoint x="10" />
            </Array>
          </mxGeometry>
        </mxCell>
        <mxCell id="U_zzFxPC7SBMpID13DP9-316" value="" style="ellipse;whiteSpace=wrap;html=1;aspect=fixed;" parent="U_zzFxPC7SBMpID13DP9-314" vertex="1">
          <mxGeometry x="10" y="10" width="20" height="20" as="geometry" />
        </mxCell>
        <mxCell id="U_zzFxPC7SBMpID13DP9-317" value="" style="ellipse;whiteSpace=wrap;html=1;aspect=fixed;" parent="U_zzFxPC7SBMpID13DP9-314" vertex="1">
          <mxGeometry x="10" y="10" width="20" height="20" as="geometry" />
        </mxCell>
        <mxCell id="U_zzFxPC7SBMpID13DP9-341" value="2" style="text;html=1;align=center;verticalAlign=middle;whiteSpace=wrap;rounded=0;fontSize=24;fontFamily=Helvetica;" parent="U_zzFxPC7SBMpID13DP9-314" vertex="1">
          <mxGeometry x="30" y="25" width="60" height="30" as="geometry" />
        </mxCell>
        <mxCell id="U_zzFxPC7SBMpID13DP9-318" value="" style="endArrow=none;html=1;rounded=0;" parent="U_zzFxPC7SBMpID13DP9-313" edge="1">
          <mxGeometry width="50" height="50" relative="1" as="geometry">
            <mxPoint x="14" y="45" as="sourcePoint" />
            <mxPoint x="10" y="40" as="targetPoint" />
          </mxGeometry>
        </mxCell>
        <mxCell id="U_zzFxPC7SBMpID13DP9-319" value="" style="endArrow=none;html=1;rounded=0;" parent="U_zzFxPC7SBMpID13DP9-313" edge="1">
          <mxGeometry width="50" height="50" relative="1" as="geometry">
            <mxPoint x="24" y="45" as="sourcePoint" />
            <mxPoint x="20" y="40" as="targetPoint" />
          </mxGeometry>
        </mxCell>
        <mxCell id="U_zzFxPC7SBMpID13DP9-320" value="" style="endArrow=none;html=1;rounded=0;" parent="U_zzFxPC7SBMpID13DP9-313" edge="1">
          <mxGeometry width="50" height="50" relative="1" as="geometry">
            <mxPoint x="34" y="45" as="sourcePoint" />
            <mxPoint x="30" y="40" as="targetPoint" />
          </mxGeometry>
        </mxCell>
        <mxCell id="U_zzFxPC7SBMpID13DP9-321" value="" style="endArrow=none;html=1;rounded=0;" parent="U_zzFxPC7SBMpID13DP9-313" edge="1">
          <mxGeometry width="50" height="50" relative="1" as="geometry">
            <mxPoint x="44" y="45" as="sourcePoint" />
            <mxPoint x="40" y="40" as="targetPoint" />
          </mxGeometry>
        </mxCell>
        <mxCell id="U_zzFxPC7SBMpID13DP9-322" value="" style="endArrow=none;html=1;rounded=0;" parent="U_zzFxPC7SBMpID13DP9-313" edge="1">
          <mxGeometry width="50" height="50" relative="1" as="geometry">
            <mxPoint x="4" y="45" as="sourcePoint" />
            <mxPoint y="40" as="targetPoint" />
          </mxGeometry>
        </mxCell>
        <mxCell id="U_zzFxPC7SBMpID13DP9-323" value="" style="group" parent="1" vertex="1" connectable="0">
          <mxGeometry x="640" y="1040" width="44" height="45" as="geometry" />
        </mxCell>
        <mxCell id="U_zzFxPC7SBMpID13DP9-324" value="" style="group" parent="U_zzFxPC7SBMpID13DP9-323" vertex="1" connectable="0">
          <mxGeometry width="40" height="40" as="geometry" />
        </mxCell>
        <mxCell id="U_zzFxPC7SBMpID13DP9-325" value="" style="endArrow=none;html=1;rounded=0;" parent="U_zzFxPC7SBMpID13DP9-324" edge="1">
          <mxGeometry width="50" height="50" relative="1" as="geometry">
            <mxPoint y="40" as="sourcePoint" />
            <mxPoint y="40" as="targetPoint" />
            <Array as="points">
              <mxPoint x="30" y="40" />
              <mxPoint x="40" y="40" />
              <mxPoint x="30" />
              <mxPoint x="10" />
            </Array>
          </mxGeometry>
        </mxCell>
        <mxCell id="U_zzFxPC7SBMpID13DP9-326" value="" style="ellipse;whiteSpace=wrap;html=1;aspect=fixed;" parent="U_zzFxPC7SBMpID13DP9-324" vertex="1">
          <mxGeometry x="10" y="10" width="20" height="20" as="geometry" />
        </mxCell>
        <mxCell id="U_zzFxPC7SBMpID13DP9-327" value="" style="ellipse;whiteSpace=wrap;html=1;aspect=fixed;" parent="U_zzFxPC7SBMpID13DP9-324" vertex="1">
          <mxGeometry x="10" y="10" width="20" height="20" as="geometry" />
        </mxCell>
        <mxCell id="U_zzFxPC7SBMpID13DP9-328" value="" style="endArrow=none;html=1;rounded=0;" parent="U_zzFxPC7SBMpID13DP9-323" edge="1">
          <mxGeometry width="50" height="50" relative="1" as="geometry">
            <mxPoint x="14" y="45" as="sourcePoint" />
            <mxPoint x="10" y="40" as="targetPoint" />
          </mxGeometry>
        </mxCell>
        <mxCell id="U_zzFxPC7SBMpID13DP9-329" value="" style="endArrow=none;html=1;rounded=0;" parent="U_zzFxPC7SBMpID13DP9-323" edge="1">
          <mxGeometry width="50" height="50" relative="1" as="geometry">
            <mxPoint x="24" y="45" as="sourcePoint" />
            <mxPoint x="20" y="40" as="targetPoint" />
          </mxGeometry>
        </mxCell>
        <mxCell id="U_zzFxPC7SBMpID13DP9-330" value="" style="endArrow=none;html=1;rounded=0;" parent="U_zzFxPC7SBMpID13DP9-323" edge="1">
          <mxGeometry width="50" height="50" relative="1" as="geometry">
            <mxPoint x="34" y="45" as="sourcePoint" />
            <mxPoint x="30" y="40" as="targetPoint" />
          </mxGeometry>
        </mxCell>
        <mxCell id="U_zzFxPC7SBMpID13DP9-331" value="" style="endArrow=none;html=1;rounded=0;" parent="U_zzFxPC7SBMpID13DP9-323" edge="1">
          <mxGeometry width="50" height="50" relative="1" as="geometry">
            <mxPoint x="44" y="45" as="sourcePoint" />
            <mxPoint x="40" y="40" as="targetPoint" />
          </mxGeometry>
        </mxCell>
        <mxCell id="U_zzFxPC7SBMpID13DP9-332" value="" style="endArrow=none;html=1;rounded=0;" parent="U_zzFxPC7SBMpID13DP9-323" edge="1">
          <mxGeometry width="50" height="50" relative="1" as="geometry">
            <mxPoint x="4" y="45" as="sourcePoint" />
            <mxPoint y="40" as="targetPoint" />
          </mxGeometry>
        </mxCell>
        <mxCell id="U_zzFxPC7SBMpID13DP9-333" value="" style="endArrow=none;html=1;rounded=0;strokeWidth=3;" parent="1" source="U_zzFxPC7SBMpID13DP9-334" target="U_zzFxPC7SBMpID13DP9-335" edge="1">
          <mxGeometry width="50" height="50" relative="1" as="geometry">
            <mxPoint x="581" y="1052" as="sourcePoint" />
            <mxPoint x="631" y="952" as="targetPoint" />
          </mxGeometry>
        </mxCell>
        <mxCell id="U_zzFxPC7SBMpID13DP9-334" value="" style="ellipse;whiteSpace=wrap;html=1;aspect=fixed;" parent="1" vertex="1">
          <mxGeometry x="571" y="1051" width="20" height="20" as="geometry" />
        </mxCell>
        <mxCell id="U_zzFxPC7SBMpID13DP9-335" value="" style="ellipse;whiteSpace=wrap;html=1;aspect=fixed;" parent="1" vertex="1">
          <mxGeometry x="630" y="876" width="20" height="20" as="geometry" />
        </mxCell>
        <mxCell id="U_zzFxPC7SBMpID13DP9-336" value="" style="endArrow=none;html=1;rounded=0;strokeWidth=3;" parent="1" source="U_zzFxPC7SBMpID13DP9-317" target="U_zzFxPC7SBMpID13DP9-327" edge="1">
          <mxGeometry width="50" height="50" relative="1" as="geometry">
            <mxPoint x="581" y="1052" as="sourcePoint" />
            <mxPoint x="631" y="952" as="targetPoint" />
          </mxGeometry>
        </mxCell>
        <mxCell id="U_zzFxPC7SBMpID13DP9-337" value="" style="endArrow=none;html=1;rounded=0;strokeWidth=3;" parent="1" source="U_zzFxPC7SBMpID13DP9-338" target="U_zzFxPC7SBMpID13DP9-339" edge="1">
          <mxGeometry width="50" height="50" relative="1" as="geometry">
            <mxPoint x="781" y="1052" as="sourcePoint" />
            <mxPoint x="831" y="952" as="targetPoint" />
          </mxGeometry>
        </mxCell>
        <mxCell id="U_zzFxPC7SBMpID13DP9-338" value="" style="ellipse;whiteSpace=wrap;html=1;aspect=fixed;" parent="1" vertex="1">
          <mxGeometry x="650" y="1050" width="20" height="20" as="geometry" />
        </mxCell>
        <mxCell id="U_zzFxPC7SBMpID13DP9-339" value="" style="ellipse;whiteSpace=wrap;html=1;aspect=fixed;" parent="1" vertex="1">
          <mxGeometry x="664" y="959" width="20" height="20" as="geometry" />
        </mxCell>
        <mxCell id="U_zzFxPC7SBMpID13DP9-340" value="" style="endArrow=none;html=1;rounded=0;strokeWidth=3;" parent="1" source="U_zzFxPC7SBMpID13DP9-335" target="U_zzFxPC7SBMpID13DP9-339" edge="1">
          <mxGeometry width="50" height="50" relative="1" as="geometry">
            <mxPoint x="790" y="1061" as="sourcePoint" />
            <mxPoint x="772" y="931" as="targetPoint" />
          </mxGeometry>
        </mxCell>
        <mxCell id="U_zzFxPC7SBMpID13DP9-342" value="2,5" style="text;html=1;align=center;verticalAlign=middle;whiteSpace=wrap;rounded=0;fontSize=24;fontFamily=Helvetica;" parent="1" vertex="1">
          <mxGeometry x="670" y="1009" width="60" height="30" as="geometry" />
        </mxCell>
        <mxCell id="U_zzFxPC7SBMpID13DP9-343" value="2" style="text;html=1;align=center;verticalAlign=middle;whiteSpace=wrap;rounded=0;fontSize=24;fontFamily=Helvetica;" parent="1" vertex="1">
          <mxGeometry x="640" y="909" width="60" height="30" as="geometry" />
        </mxCell>
        <mxCell id="U_zzFxPC7SBMpID13DP9-344" value="4,7" style="text;html=1;align=center;verticalAlign=middle;whiteSpace=wrap;rounded=0;fontSize=24;fontFamily=Helvetica;" parent="1" vertex="1">
          <mxGeometry x="560" y="941" width="60" height="30" as="geometry" />
        </mxCell>
        <mxCell id="U_zzFxPC7SBMpID13DP9-351" value="a." style="text;html=1;align=center;verticalAlign=middle;whiteSpace=wrap;rounded=0;fontFamily=Georgia;fontSize=29;" parent="1" vertex="1">
          <mxGeometry x="170" y="660" width="60" height="30" as="geometry" />
        </mxCell>
        <mxCell id="U_zzFxPC7SBMpID13DP9-352" value="b." style="text;html=1;align=center;verticalAlign=middle;whiteSpace=wrap;rounded=0;fontFamily=Georgia;fontSize=29;" parent="1" vertex="1">
          <mxGeometry x="490" y="660" width="60" height="30" as="geometry" />
        </mxCell>
        <mxCell id="U_zzFxPC7SBMpID13DP9-353" value="c." style="text;html=1;align=center;verticalAlign=middle;whiteSpace=wrap;rounded=0;fontFamily=Georgia;fontSize=29;" parent="1" vertex="1">
          <mxGeometry x="170" y="899" width="60" height="30" as="geometry" />
        </mxCell>
        <mxCell id="U_zzFxPC7SBMpID13DP9-354" value="d." style="text;html=1;align=center;verticalAlign=middle;whiteSpace=wrap;rounded=0;fontFamily=Georgia;fontSize=29;" parent="1" vertex="1">
          <mxGeometry x="487" y="899" width="60" height="30" as="geometry" />
        </mxCell>
        <mxCell id="V8qkD6h360J0XXm_9jXh-1" value="" style="group" vertex="1" connectable="0" parent="1">
          <mxGeometry x="1449" y="1024" width="44" height="45" as="geometry" />
        </mxCell>
        <mxCell id="V8qkD6h360J0XXm_9jXh-2" value="" style="group" vertex="1" connectable="0" parent="V8qkD6h360J0XXm_9jXh-1">
          <mxGeometry width="40" height="40" as="geometry" />
        </mxCell>
        <mxCell id="V8qkD6h360J0XXm_9jXh-3" value="" style="endArrow=none;html=1;rounded=0;" edge="1" parent="V8qkD6h360J0XXm_9jXh-2">
          <mxGeometry width="50" height="50" relative="1" as="geometry">
            <mxPoint y="40" as="sourcePoint" />
            <mxPoint y="40" as="targetPoint" />
            <Array as="points">
              <mxPoint x="30" y="40" />
              <mxPoint x="40" y="40" />
              <mxPoint x="30" />
              <mxPoint x="10" />
            </Array>
          </mxGeometry>
        </mxCell>
        <mxCell id="V8qkD6h360J0XXm_9jXh-4" value="" style="ellipse;whiteSpace=wrap;html=1;aspect=fixed;" vertex="1" parent="V8qkD6h360J0XXm_9jXh-2">
          <mxGeometry x="10" y="10" width="20" height="20" as="geometry" />
        </mxCell>
        <mxCell id="V8qkD6h360J0XXm_9jXh-5" value="" style="endArrow=none;html=1;rounded=0;" edge="1" parent="V8qkD6h360J0XXm_9jXh-1">
          <mxGeometry width="50" height="50" relative="1" as="geometry">
            <mxPoint x="14" y="45" as="sourcePoint" />
            <mxPoint x="10" y="40" as="targetPoint" />
          </mxGeometry>
        </mxCell>
        <mxCell id="V8qkD6h360J0XXm_9jXh-6" value="" style="endArrow=none;html=1;rounded=0;" edge="1" parent="V8qkD6h360J0XXm_9jXh-1">
          <mxGeometry width="50" height="50" relative="1" as="geometry">
            <mxPoint x="24" y="45" as="sourcePoint" />
            <mxPoint x="20" y="40" as="targetPoint" />
          </mxGeometry>
        </mxCell>
        <mxCell id="V8qkD6h360J0XXm_9jXh-7" value="" style="endArrow=none;html=1;rounded=0;" edge="1" parent="V8qkD6h360J0XXm_9jXh-1">
          <mxGeometry width="50" height="50" relative="1" as="geometry">
            <mxPoint x="34" y="45" as="sourcePoint" />
            <mxPoint x="30" y="40" as="targetPoint" />
          </mxGeometry>
        </mxCell>
        <mxCell id="V8qkD6h360J0XXm_9jXh-8" value="" style="endArrow=none;html=1;rounded=0;" edge="1" parent="V8qkD6h360J0XXm_9jXh-1">
          <mxGeometry width="50" height="50" relative="1" as="geometry">
            <mxPoint x="44" y="45" as="sourcePoint" />
            <mxPoint x="40" y="40" as="targetPoint" />
          </mxGeometry>
        </mxCell>
        <mxCell id="V8qkD6h360J0XXm_9jXh-9" value="" style="endArrow=none;html=1;rounded=0;" edge="1" parent="V8qkD6h360J0XXm_9jXh-1">
          <mxGeometry width="50" height="50" relative="1" as="geometry">
            <mxPoint x="4" y="45" as="sourcePoint" />
            <mxPoint y="40" as="targetPoint" />
          </mxGeometry>
        </mxCell>
        <mxCell id="V8qkD6h360J0XXm_9jXh-10" value="" style="endArrow=none;html=1;rounded=0;strokeWidth=3;" edge="1" parent="1" source="V8qkD6h360J0XXm_9jXh-11" target="V8qkD6h360J0XXm_9jXh-15">
          <mxGeometry width="50" height="50" relative="1" as="geometry">
            <mxPoint x="1357" y="954" as="sourcePoint" />
            <mxPoint x="1407" y="854" as="targetPoint" />
          </mxGeometry>
        </mxCell>
        <mxCell id="V8qkD6h360J0XXm_9jXh-11" value="" style="ellipse;whiteSpace=wrap;html=1;aspect=fixed;" vertex="1" parent="1">
          <mxGeometry x="1346.5" y="952.5" width="20" height="20" as="geometry" />
        </mxCell>
        <mxCell id="V8qkD6h360J0XXm_9jXh-13" value="" style="endArrow=none;html=1;rounded=0;strokeWidth=3;" edge="1" parent="1" source="V8qkD6h360J0XXm_9jXh-4" target="V8qkD6h360J0XXm_9jXh-15">
          <mxGeometry width="50" height="50" relative="1" as="geometry">
            <mxPoint x="1427.1799760511585" y="963.9155187154822" as="sourcePoint" />
            <mxPoint x="1473" y="864" as="targetPoint" />
          </mxGeometry>
        </mxCell>
        <mxCell id="V8qkD6h360J0XXm_9jXh-15" value="" style="ellipse;whiteSpace=wrap;html=1;aspect=fixed;" vertex="1" parent="1">
          <mxGeometry x="1419" y="904" width="20" height="20" as="geometry" />
        </mxCell>
        <mxCell id="V8qkD6h360J0XXm_9jXh-41" value="f." style="text;html=1;align=center;verticalAlign=middle;whiteSpace=wrap;rounded=0;fontFamily=Georgia;fontSize=29;" vertex="1" parent="1">
          <mxGeometry x="1267" y="869" width="60" height="30" as="geometry" />
        </mxCell>
      </root>
    </mxGraphModel>
  </diagram>
</mxfile>
